<svg width="72" height="24" viewBox="0 0 72 24" fill="none" xmlns="http://www.w3.org/2000/svg">
<path d="M12.5644 9.77945C12.5232 9.84735 12.4233 9.84735 12.3821 9.77945L6.37408 0H0V23.9893H7.12758L6.92922 12.0919L12.3168 20.5507C12.3901 20.6652 12.5565 20.6652 12.6297 20.5507L18.0173 12.0919L17.8189 23.9893H24.9465V0H18.5724L12.5644 9.77945Z" fill="#F2EBDF"></path>
<path d="M45.7821 13.8557C45.3507 13.061 44.741 12.382 43.9702 11.8376L43.9622 11.8322C43.7279 11.6592 43.4763 11.4994 43.2167 11.3556L42.4513 10.935L43.1555 10.4184C43.5509 10.1295 43.8917 9.77676 44.1699 9.37072L44.1739 9.36407C44.3776 9.07518 44.5507 8.76233 44.6904 8.42419C44.7663 8.24314 44.8329 8.0541 44.8901 7.85974C44.9487 7.66404 44.998 7.46036 45.0366 7.25002C45.0699 7.07429 45.0965 6.89457 45.1164 6.71086C45.1497 6.42065 45.1657 6.11712 45.1657 5.80294C45.1657 4.64474 44.8435 3.61967 44.2085 2.75701L44.2032 2.75036C43.5895 1.8877 42.6696 1.20875 41.4661 0.732161C40.5902 0.378045 39.5558 0.153063 38.3776 0.0612057C38.0208 0.0332492 37.6507 0.017274 37.2687 0.0132802C37.2061 0.0119489 37.1422 0.0119476 37.0783 0.0119476H26.0435V24H35.0348L46.24 15.0206C46.1322 14.6079 45.9791 14.2192 45.7821 13.8557ZM32.8968 5.83755H35.7417C36.5604 5.83755 37.1488 6.01062 37.4897 6.35142C37.8531 6.66959 38.0381 7.0956 38.0381 7.61878C38.0381 8.00618 37.9569 8.34033 37.7972 8.61324C37.6601 8.86484 37.4191 9.06054 37.0783 9.195C36.7601 9.33212 36.3328 9.40134 35.8096 9.40134H32.8968V5.83755ZM39.0033 17.2731L38.9913 17.2944C38.8369 17.5766 38.6159 17.8003 38.3337 17.9574L38.2897 17.9787C37.9969 18.1078 37.6361 18.1744 37.2154 18.1744H32.8968V14.3363H37.0437C37.5216 14.3363 37.925 14.4162 38.2431 14.576H38.2458C38.5613 14.7131 38.8036 14.9194 38.9634 15.1923C39.1444 15.4426 39.2376 15.7661 39.2376 16.1522C39.2376 16.5795 39.1577 16.9563 39.0033 17.2731Z" fill="#F2EBDF"></path>
<path d="M45.0685 2.12864C45.8393 3.17768 46.2307 4.41442 46.2307 5.80292C46.2307 6.38202 46.1815 6.93583 46.0843 7.4457C46.0816 7.45768 46.0803 7.46833 46.0776 7.48032L50.8728 11.3237L58.3612 5.32234L54.603 0.0119324H42.4739C42.9252 0.230259 43.3392 0.479205 43.712 0.756108C44.2485 1.15549 44.7011 1.61344 45.0685 2.12864Z" fill="#F2EBDF"></path>
<path d="M71.3516 23.6791L63.7434 12.9278L59.8096 18.4859L66.6895 23.9986H71.2731C71.3463 23.968 71.3703 23.8961 71.3769 23.8655C71.3916 23.8029 71.3822 23.735 71.3516 23.6805V23.6791Z" fill="#F2EBDF"></path>
<path d="M71.3517 0.331452C71.3823 0.275539 71.3916 0.207643 71.377 0.145074C71.3703 0.115786 71.3463 0.0425667 71.2731 0.0119476H66.6896L58.9776 6.193L51.7236 12.0053L37.1675 23.6698C37.0317 23.7803 37.109 24 37.2834 24H54.6031L58.9776 17.8189L63.0912 12.0053L71.3517 0.331452Z" fill="#F2EBDF"></path>
</svg>