<svg width="500" height="139" viewBox="0 0 500 139" fill="none" xmlns="http://www.w3.org/2000/svg">
<g clip-path="url(#clip0_18_303)">
<path fill-rule="evenodd" clip-rule="evenodd" d="M0 129.127H32.0071L39.6419 107.908H81.3393L88.6803 129.127H121.275L76.3476 10.5292H44.6337L0 129.127ZM302.747 129.127H331.231V10.5292H302.747V129.127ZM295.993 43.0869H267.509V89.3043C267.509 104.71 258.113 108.488 251.946 108.488C242.843 108.488 237.851 104.419 237.851 93.0826V43.0863H209.368V94.8264C209.368 117.499 216.709 131.742 241.669 131.742C251.653 131.742 262.811 126.219 268.096 117.499H268.39V129.126H295.993V43.0869ZM206.137 129.127H123.327L123.033 107.036L166.492 64.3068H126.557V42.7967H202.905V64.3068L159.446 107.617H206.135L206.137 129.127ZM60.7853 43.3796H60.4915L46.6903 84.9462H73.9989L60.7853 43.3796Z" fill="white"/>
<path d="M447.758 13.3515H456.008V19.7776H447.758V13.3515Z" fill="#5162AA"/>
<path d="M417.81 82.1956H442.557V108.817H417.81V82.1956Z" fill="#8C338A"/>
<path d="M434.31 114.329H450.502V124.121H434.31V114.329Z" fill="#5D81C1"/>
<path d="M424.534 118.916H444.088V138.5H424.534V118.916Z" fill="#E75027"/>
<path d="M448.976 101.174H465.78V108.518H448.976V101.174Z" fill="#D5292A"/>
<path d="M442.861 87.7075H459.97V92.298H442.861V87.7075Z" fill="#F6A124"/>
<path d="M465.775 101.174H477.69V104.54H465.775V101.174Z" fill="#6A95CD"/>
<path d="M442.861 66.5916H459.359V87.7057H442.861V66.5916Z" fill="#3370B6"/>
<path d="M410.477 50.3772H442.557V81.8946H410.477V50.3772Z" fill="#74C7DC"/>
<path d="M391.839 50.3772H413.225V67.8187H391.839V50.3772Z" fill="#92C144"/>
<path d="M419.644 20.9995H456V50.6812H419.644V20.9995Z" fill="#5162AA"/>
<path d="M459.057 54.3544H485.637V86.7903H459.057V54.3544Z" fill="#199BD6"/>
<path d="M455.085 72.7185H477.694V101.482H455.085V72.7185Z" fill="#F6A124"/>
<path d="M442.861 92.2997H459.665V108.823H442.861V92.2997Z" fill="#D5292A"/>
<path d="M432.781 102.398H454.473V114.332H432.781V102.398Z" fill="#1F9AA7"/>
<path d="M477.694 84.0349H482.277V98.4166H477.694V84.0349Z" fill="#A5BFDF"/>
<path d="M485.637 53.4359H497.858V61.0857H485.637V53.4359Z" fill="#3FB6AF"/>
<path d="M484.717 60.7751H493.577V65.6707H484.717V60.7751Z" fill="#AF2458"/>
<path d="M442.861 37.8301H459.359V66.8997H442.861V37.8301Z" fill="#7AC19A"/>
<path d="M459.057 26.2014H481.36V54.3531H459.057V26.2014Z" fill="#E5DF22"/>
<path d="M456.304 20.9995H472.497V47.3155H456.304V20.9995Z" fill="#34BBD0"/>
<path d="M477.999 46.7058H499.996V54.3556H477.999V46.7058Z" fill="#6BA8DB"/>
<path d="M481.355 29.5694H491.743V46.7052H481.355V29.5694Z" fill="#DF5297"/>
<path d="M488.694 35.0747H498.47V42.113H488.694V35.0747Z" fill="#604696"/>
<path d="M486.251 42.1136H500V49.1518H486.251V42.1136Z" fill="#F9D805"/>
<path fill-rule="evenodd" clip-rule="evenodd" d="M456.005 13.0421H447.756V19.774H456.005V13.0421ZM434.618 13.346H419.648V29.8697H434.618V13.346Z" fill="#5162AA"/>
<path d="M373.512 13.3515H419.951V50.683H373.512V13.3515Z" fill="#16B9E7"/>
<path d="M397.339 0.498169H413.532V21.6117H397.339V0.498169Z" fill="#42AD4B"/>
<path d="M363.73 47.6219H393.671V59.25H363.73V47.6219Z" fill="#E6B722"/>
<path d="M434.614 2.33521H446.224V21.0009H434.614V2.33521Z" fill="#B9CF36"/>
<path d="M450.201 72.7185H454.783V77.3084H450.201V72.7185Z" fill="#92C144"/>
</g>
<defs>
<clipPath id="clip0_18_303">
<rect width="500" height="139" fill="white"/>
</clipPath>
</defs>
</svg>
