<svg width="112" height="20" viewBox="0 0 112 20" fill="none" xmlns="http://www.w3.org/2000/svg">
<path d="M47.1255 8.31228L46.1395 8.33528V4.39228H47.2695C48.1255 4.39228 48.4065 5.02028 48.4065 6.39228C48.4065 7.76428 48.0905 8.31228 47.1255 8.31228ZM52.1005 17.3023V13.0763C52.1005 11.0723 51.3855 9.90728 49.8575 9.63328C51.6335 9.16228 52.1195 7.67228 52.1195 5.76428C52.1195 3.07428 51.1525 1.40228 48.0155 1.40228H42.3975L42.4005 18.8193H46.1405V11.2463H47.0625C47.9625 11.2463 48.3895 11.8673 48.3895 12.6963V17.3293C48.3895 18.0993 48.5445 18.6673 48.6505 18.8183H52.4335C52.3015 18.6743 52.1005 18.0733 52.1005 17.3023Z" fill="white"/>
<path d="M10.1473 15.8573C10.8163 15.2993 10.9313 14.6083 10.9313 13.9883V11.3843H7.29525V14.9173C7.29525 15.4233 6.88625 15.8333 6.38125 15.8333C5.87625 15.8333 5.50025 15.4233 5.50025 14.9173V4.90827C5.50025 4.40327 5.87625 3.99327 6.38125 3.99327C6.88625 3.99327 7.29525 4.40327 7.29525 4.90827V8.46427H10.9263V4.77527C10.9263 2.73727 9.59425 1.06027 6.35025 1.05627C3.01925 1.05627 1.76025 2.74127 1.76025 4.77927V15.2303C1.76025 17.2503 3.36425 18.7783 5.41525 18.7783H6.54125L10.1473 15.8573Z" fill="white"/>
<path d="M105.074 8.30325H104.081V4.38325H105.217C106.071 4.38325 106.354 5.01125 106.354 6.38225C106.354 7.75525 106.04 8.30325 105.074 8.30325ZM110.045 17.2932V13.0662C110.045 11.0632 109.333 9.89825 107.805 9.62325C109.581 9.15325 110.067 7.66425 110.067 5.75725C110.067 3.06525 109.097 1.39325 105.963 1.39325H100.344V18.8102H104.093V11.2382H105.008C105.91 11.2382 106.332 11.8582 106.332 12.6882V17.3212C106.332 18.0922 106.491 18.6592 106.596 18.8102H110.376C110.246 18.6652 110.045 18.0632 110.045 17.2932Z" fill="white"/>
<path d="M92.5561 12.5433L93.5301 4.41625L94.5021 12.5433H92.5561ZM96.0351 1.35925H91.0061L88.0181 18.8093H91.8041L92.1751 15.7303L94.8801 15.7283L95.2491 18.8093H99.0381L96.0351 1.35925Z" fill="white"/>
<path d="M70.958 18.8073V1.39728H74.794V15.5023H78.791V18.8073H70.958Z" fill="white"/>
<path d="M68.9263 1.39825H65.0933V18.8083H68.9263V1.39825Z" fill="white"/>
<path d="M70.958 18.8073V1.39728H74.794V15.5023H78.791V18.8073H70.958Z" fill="white"/>
<path d="M79.7144 18.8073V1.39728H83.5474V15.5023H87.5464V18.8073H79.7144Z" fill="white"/>
<path d="M58.817 8.82025L57.673 8.80625V4.39025H58.811C59.783 4.39025 59.946 5.05625 59.946 6.65025C59.946 8.29725 59.782 8.82025 58.817 8.82025ZM59.782 1.39825H53.937V18.8153H57.685V11.9033H59.782C63.225 11.9033 63.806 9.70925 63.806 6.65025C63.807 3.59225 63.226 1.39825 59.782 1.39825Z" fill="white"/>
<path d="M35.9211 4.71629V8.16629H39.8901V11.5773H35.9211V15.4433L40.6371 15.4413V18.8023L32.0821 18.8063V1.39429H32.0781H40.4821V4.71629H35.9211Z" fill="white"/>
<path d="M24.4812 16.2673V4.78229H21.9712V1.39929H31.0532V4.78229H28.5312V18.7573H27.4552L24.4812 16.2673Z" fill="white"/>
<path d="M26.1081 18.7833L17.2641 11.3723L8.1001 18.7833H26.1081Z" fill="#FFC400"/>
<path d="M16.286 9.3753L17.265 4.3713L18.239 9.3753H16.286ZM19.787 1.4173H14.721L11.77 14.6603L17.266 10.2233L22.996 15.0253L19.787 1.4173Z" fill="white"/>
</svg>
