<svg width="500" height="245" viewBox="0 0 500 245" fill="none" xmlns="http://www.w3.org/2000/svg">
<g clip-path="url(#clip0_17_298)">
<path d="M449.35 81.761V161.65C455.706 163.437 461.957 164.331 469.991 164.331C489.071 164.331 500.002 151.386 500.002 132.643C500.002 116.242 492.864 106.644 479.585 106.644C471.884 106.644 465.641 110.439 462.849 116.463H462.737C463.293 113.564 463.629 108.985 463.629 105.64V81.7618L449.35 81.761ZM236.76 87.343C211.543 87.343 199.046 104.077 199.046 127.953C199.046 146.7 207.527 164.219 233.859 164.219C240.888 164.219 247.694 162.88 253.272 160.87L251.6 147.927C247.692 149.714 241.557 151.052 236.984 151.052C221.808 151.052 215.002 141.902 215.002 125.501C215.002 110.884 221.918 100.287 235.98 100.287C241.112 100.287 246.242 101.068 251.151 102.519L252.711 89.3515C247.805 88.0136 242.114 87.343 236.76 87.343ZM358.96 106.532C349.924 106.532 343.454 111.108 340.103 117.691L339.991 117.579C340.55 114.677 340.771 110.326 340.771 107.76H327.277V163.215H341.551V136.436C341.551 126.728 347.244 118.471 354.499 118.471C359.737 118.471 361.3 121.93 361.3 127.734V163.215H375.472V124.277C375.472 114.569 371.457 106.532 358.96 106.532ZM410.968 106.532C403.826 106.532 396.685 107.983 391.107 109.993L392.33 121.927C397.02 119.251 403.713 117.579 408.735 117.579C416.769 117.579 419.558 120.589 419.558 126.393V129.406C400.704 129.406 387.538 136.436 387.538 149.716C387.538 158.638 393.337 164.327 403.377 164.327C411.634 164.327 418.435 159.978 421.118 153.728L421.236 153.84C420.786 156.739 420.67 159.98 420.67 163.215H434.174C433.951 158.639 433.843 153.393 433.843 148.931V125.837C433.843 113.786 428.82 106.531 410.969 106.531L410.968 106.532ZM289.218 106.644C272.371 106.644 260.874 119.14 260.874 136.436C260.874 156.182 271.032 164.332 286.761 164.332C303.388 164.332 315.1 151.834 315.1 134.428C315.1 115.348 304.946 106.644 289.218 106.644ZM475.578 118.466C482.048 118.466 485.06 123.714 485.06 134.091C485.06 147.816 479.148 152.948 471.117 152.948C467.992 152.948 465.652 152.613 463.639 151.944V136.324C463.639 127.062 468.1 118.466 475.578 118.466ZM288.208 118.695C296.578 118.695 300.371 124.494 300.371 135.207C300.371 146.476 295.009 152.168 287.983 152.168C279.723 152.168 275.595 146.367 275.595 134.988C275.595 123.606 281.847 118.695 288.207 118.695H288.208ZM419.558 138.668V140.009C419.558 146.702 414.756 153.396 407.731 153.396C403.604 153.396 401.149 151.053 401.149 147.482C401.149 143.019 404.495 138.668 419.558 138.668Z" fill="white"/>
<path d="M57.2981 169.24C63.0291 170.448 68.7631 171.051 74.7871 171.051C94.6921 171.051 112.484 163.512 125.757 149.94C116.405 165.016 100.726 175.275 81.4271 175.275C72.6775 175.275 65.1391 173.16 57.2981 169.24ZM51.2676 165.626C49.1543 164.115 47.3438 162.608 45.8395 161.097C48.2524 161.403 50.9648 161.706 53.3776 161.706C91.0746 161.706 122.137 133.354 125.758 97.1639C129.981 104.1 132.39 111.944 132.996 120.687C122.739 148.131 95.9012 167.131 65.1392 167.131C60.3168 167.131 55.791 166.528 51.2676 165.626ZM41.0102 155.975C39.2064 153.562 37.3959 150.85 35.8882 148.131C71.4722 143.308 98.3132 112.547 98.3132 76.6568V74.853C104.34 76.963 109.472 79.9783 114.295 83.5959C114.295 120.688 85.6502 152.355 47.9532 155.673C45.8399 155.976 43.7298 155.976 41.6198 155.976L41.0102 155.975ZM29.8542 124.009C29.8542 95.3541 52.7752 72.1341 81.1202 72.1341C79.6159 101.99 59.7102 127.93 31.6642 137.275C30.4561 133.055 29.8542 128.532 29.8542 124.009ZM83.5357 214.48C84.4376 212.973 86.5509 209.348 88.0619 207.238C37.3949 181.305 18.6979 156.574 18.6979 130.642C18.6979 92.0432 37.3949 73.3452 66.3429 45.2992V44.9931C32.5689 68.5191 14.4749 87.8191 5.4319 111.339C4.82286 113.452 3.9209 117.073 3.9209 120.987C3.9209 150.544 34.6757 185.226 83.5357 214.48ZM79.3159 30.5203C78.4073 32.0246 76.294 35.6456 74.7864 37.7556C125.453 63.6886 144.15 88.4196 144.15 114.352C144.15 152.958 125.453 171.652 96.5024 199.701V200C130.279 176.48 148.37 157.181 157.42 133.651C158.023 131.541 158.928 127.927 158.928 124.006C158.928 94.4493 128.17 59.7673 79.3159 30.5203Z" fill="#5BA51E"/>
<path d="M75.3951 244.64C75.3951 234.083 78.7099 223.829 83.539 214.484C34.679 185.23 3.92099 150.548 3.92099 120.991C3.92099 117.077 4.82625 113.456 5.43199 111.343C1.81099 120.392 0.000488281 130.646 0.000488281 140.9C0.000488281 175.882 26.2351 211.166 75.3951 244.64ZM87.4565 0.359802C87.4565 10.9168 84.1417 21.1708 79.3159 30.5228C128.169 59.7698 158.928 94.4528 158.928 124.01C158.928 127.93 158.026 131.545 157.427 133.655C161.038 124.612 162.852 114.355 162.852 104.101C162.852 69.1227 136.616 33.8338 87.4565 0.359802Z" fill="white"/>
</g>
<defs>
<clipPath id="clip0_17_298">
<rect width="500" height="245" fill="white"/>
</clipPath>
</defs>
</svg>
