<svg width="1024" height="211" viewBox="0 0 1024 211" fill="none" xmlns="http://www.w3.org/2000/svg">
<path d="M101.183 5.97168C50.5071 8.74546 9.92808 49.3217 7.1543 99.9978L101.183 5.97168ZM126.709 7.80949L8.99495 125.523C9.9611 130.261 11.2397 134.843 12.8603 139.3C14.4186 143.694 16.3196 147.932 18.4701 152.046C34.1778 181.81 64.5014 202.628 99.9062 205.028L32.6799 137.833L46.4565 124.059L125.806 203.44C135.249 201.601 144.225 198.452 152.515 194.151L64.4382 106.075L78.1836 92.3322L169.157 183.306C175.796 177.976 181.747 171.807 186.827 164.981L151.549 129.7H203.504C205.436 121.971 206.463 113.898 206.463 105.545C206.463 105.109 206.432 104.704 206.432 104.268H126.117L107.917 86.0684H204.532C202.755 77.0925 199.762 68.5524 195.773 60.6362H109.911L128.079 42.4336H183.931C175.516 32.1176 165.043 23.549 153.2 17.3157C152.982 17.1911 152.764 17.0978 152.546 16.9731C144.505 12.7968 135.841 9.67947 126.709 7.80949Z" fill="#0072CE"/>
<path d="M415.185 23.0501C407.767 23.0501 400.91 24.2013 394.552 26.5077C388.226 28.7827 382.741 32.0558 378.097 36.2632C373.484 40.5019 369.835 45.6445 367.217 51.6595C364.568 57.7058 363.23 64.4693 363.23 71.9492C363.23 79.4291 364.568 86.2548 367.217 92.4257C369.835 98.5966 373.484 103.864 378.097 108.227C382.741 112.59 388.226 115.956 394.552 118.325C400.91 120.695 407.767 121.907 415.185 121.907C422.571 121.907 429.425 120.694 435.783 118.325C442.11 115.956 447.629 112.59 452.303 108.227C456.947 103.864 460.625 98.5966 463.243 92.4257C465.892 86.2548 467.23 79.4291 467.23 71.9492C467.23 64.4693 465.892 57.7058 463.243 51.6595C460.625 45.6445 456.947 40.5019 452.303 36.2632C447.629 32.0558 442.11 28.7827 435.783 26.5077C429.425 24.2017 422.571 23.0501 415.185 23.0501ZM309.656 23.0813C302.612 23.0813 295.973 24.2326 289.771 26.57C283.538 28.9076 278.146 32.2114 273.565 36.5435C269.015 40.8445 265.399 46.0495 262.75 52.1268C260.101 58.2042 258.792 64.999 258.792 72.4787C258.792 79.8652 260.101 86.5976 262.75 92.6126C265.399 98.6589 269.015 103.864 273.565 108.227C278.146 112.59 283.538 115.957 289.771 118.325C295.973 120.693 302.612 121.876 309.656 121.876C317.478 121.876 324.491 120.631 330.662 118.138C336.833 115.614 342.007 112.247 346.245 108.009L326.952 84.8819C325.456 86.9389 323.4 88.6852 320.813 90.1801C318.226 91.6751 315.109 92.4257 311.494 92.4257C308.938 92.4257 306.508 91.9598 304.233 91.0552C301.927 90.12 299.93 88.7805 298.215 87.0029C296.501 85.2576 295.132 83.17 294.104 80.739C293.106 78.3082 292.606 75.5643 292.606 72.4787C292.606 69.3934 293.075 66.5899 294.041 64.0967C295.039 61.5722 296.377 59.4496 298.091 57.6742C299.805 55.9289 301.802 54.59 304.108 53.6559C306.383 52.7219 308.844 52.2514 311.494 52.2514C314.735 52.2514 317.697 52.8464 320.346 54.0609C322.995 55.2453 325.176 56.9905 326.952 59.2657L346.245 36.014C341.913 32.0559 336.55 28.9077 330.13 26.57C323.678 24.2329 316.855 23.0813 309.656 23.0813ZM491.136 25.6978V119.26H521.648V85.8192H522.582L540.502 119.26H576.624L552.877 81.3309C558.144 78.9622 562.195 75.5961 565 71.2327C567.804 66.8696 569.208 61.82 569.208 56.0856C569.208 50.1952 568.116 45.3014 565.903 41.3745C563.721 37.4477 560.822 34.3305 557.238 31.9929C553.685 29.6555 549.634 28.0336 545.115 27.0996C540.565 26.1655 535.985 25.6978 531.435 25.6978H491.136ZM594.668 25.6978V52.2514H617.67V119.26H649.117V52.2514H672.117V25.6978H594.668ZM700.353 25.6978V119.26H766.925V93.0799H729.93V84.3523H762.561V59.9198H729.93V51.8776H764.682V25.6978H700.353ZM787.775 25.6978L820.935 119.26H855.842L889.657 25.6978H854.126L839.325 83.5736H838.795L823.336 25.6978H787.775ZM927.492 25.6978L890.653 119.26H923.941L928.585 105.514H958.285L963.178 119.26H997.4L960.935 25.6978H927.492ZM986.396 25.6978V28.5976H990.354V39.7236H993.752V28.5976H997.711V25.6978H986.396ZM1000.83 25.6978V39.7236H1004L1003.94 29.8124H1003.97L1007.53 39.7236H1009.89L1013.54 29.8124H1013.6L1013.51 39.7236H1016.85V25.6978H1011.95L1008.9 34.6746H1008.83L1005.63 25.6978H1000.83ZM521.368 50.1247H528.846C529.812 50.1247 530.873 50.2156 531.995 50.3513C533.148 50.4757 534.175 50.7859 535.141 51.2857C536.108 51.7539 536.888 52.5038 537.512 53.4379C538.134 54.4353 538.415 55.7424 538.415 57.425C538.415 59.0769 538.073 60.4171 537.293 61.4461C536.577 62.4736 535.64 63.2555 534.549 63.8163C533.459 64.4089 532.273 64.7794 531.027 64.9377C529.749 65.1277 528.598 65.2181 527.538 65.2181H521.368V50.1247ZM415.185 51.8776C417.803 51.8776 420.264 52.3447 422.508 53.3105C424.752 54.2766 426.683 55.6167 428.367 57.3627C430.049 59.0768 431.359 61.1955 432.263 63.6889C433.198 66.2133 433.665 68.9573 433.665 71.9492C433.665 75.0345 433.198 77.8407 432.263 80.3964C431.359 82.952 430.049 85.1642 428.367 87.0029C426.684 88.8728 424.752 90.307 422.508 91.3043C420.264 92.3334 417.803 92.8307 415.185 92.8307C412.536 92.8307 410.041 92.3334 407.765 91.3043C405.459 90.307 403.527 88.8733 401.875 87.0029C400.255 85.1642 398.976 82.952 398.041 80.3964C397.137 77.8407 396.67 75.0345 396.67 71.9492C396.67 68.9573 397.137 66.2133 398.041 63.6889C398.976 61.1955 400.255 59.077 401.875 57.3627C403.527 55.6174 405.459 54.2762 407.765 53.3105C410.041 52.3447 412.536 51.8776 415.185 51.8776ZM943.76 58.3284L951.304 81.4555H936.095L943.76 58.3284Z" fill="white"/>
<path d="M380.433 138.428C377.94 138.428 375.914 140.451 375.914 142.913C375.914 145.345 377.94 147.433 380.433 147.433C382.927 147.433 384.922 145.344 384.922 142.913C384.922 140.452 382.927 138.428 380.433 138.428ZM467.759 138.428C465.297 138.428 463.243 140.451 463.243 142.913C463.243 145.345 465.297 147.433 467.759 147.433C470.253 147.433 472.279 145.344 472.279 142.913C472.279 140.452 470.253 138.428 467.759 138.428ZM278.832 151.485C269.95 151.485 262.595 158.933 262.595 168.657C262.595 178.319 269.95 185.832 278.832 185.832C283.943 185.832 287.808 183.772 290.27 180.281V184.988H297.343V152.326H290.27V156.97C287.808 153.572 283.943 151.485 278.832 151.485ZM322.807 151.485C313.613 151.485 306.351 158.996 306.351 168.346C306.351 177.664 313.613 185.206 322.807 185.206C327.856 185.206 331.689 183.024 334.182 179.503V183.493C334.182 189.165 330.535 192.501 324.458 192.501C318.754 192.501 316.357 190.288 314.923 187.483L308.843 191.005C311.586 196.241 317.134 198.92 324.302 198.92C332.873 198.92 341.103 193.996 341.103 183.493V152.326H334.182V157.157C331.689 153.635 327.856 151.485 322.807 151.485ZM405.647 151.485C398.978 151.485 393.709 155.35 393.709 161.49C393.709 173.177 411.257 169.906 411.257 175.734C411.257 178.32 408.826 179.378 405.71 179.378C402.126 179.378 399.506 177.601 398.446 174.672L392.4 178.194C394.488 182.9 399.165 185.832 405.71 185.832C412.753 185.832 418.455 182.31 418.455 175.796C418.455 163.703 400.879 167.287 400.879 161.365C400.879 158.996 403.092 157.905 405.647 157.905C408.328 157.905 410.602 159.059 411.787 161.614L417.739 158.279C415.433 153.978 411.008 151.485 405.647 151.485ZM441.832 151.485C431.983 151.485 424.595 158.933 424.595 168.657C424.595 178.319 431.983 185.832 441.832 185.832C448.221 185.832 453.797 182.496 456.54 177.353L450.463 173.893C448.874 176.884 445.696 178.911 441.769 178.911C436.035 178.911 431.64 174.547 431.64 168.657C431.64 162.798 436.035 158.403 441.769 158.403C445.696 158.403 448.874 160.367 450.338 163.452L456.415 159.901C453.797 154.821 448.221 151.485 441.832 151.485ZM497.493 151.485C487.239 151.485 480.259 158.996 480.259 168.657C480.259 178.474 487.239 185.832 498.023 185.832C504.412 185.832 509.337 183.15 512.329 178.724L506.501 175.329C504.943 177.634 502.012 179.378 498.085 179.378C492.849 179.378 488.735 176.761 487.613 171.681H513.637C513.762 170.747 513.886 169.717 513.886 168.719C513.886 159.307 507.217 151.485 497.493 151.485ZM539.879 151.485C535.453 151.485 531.9 153.106 529.75 156.503V152.326H522.707V184.988H529.75V167.504C529.75 160.835 533.429 158.092 538.072 158.092C542.498 158.092 545.364 160.711 545.364 165.667V184.988H552.438V164.95C552.438 156.442 547.203 151.485 539.879 151.485ZM578.026 151.485C568.177 151.485 560.792 158.933 560.792 168.657C560.792 178.319 568.177 185.832 578.026 185.832C584.446 185.832 589.994 182.496 592.737 177.353L586.66 173.893C585.102 176.884 581.89 178.911 577.964 178.911C572.229 178.911 567.834 174.547 567.834 168.657C567.834 162.798 572.229 158.403 577.964 158.403C581.89 158.403 585.102 160.367 586.535 163.452L592.612 159.901C589.994 154.821 584.446 151.485 578.026 151.485ZM615.332 151.485C605.078 151.485 598.097 158.996 598.097 168.657C598.097 178.474 605.078 185.832 615.861 185.832C622.25 185.832 627.144 183.15 630.167 178.724L624.339 175.329C622.782 177.634 619.852 179.377 615.926 179.378H615.923C610.689 179.377 606.576 176.761 605.454 171.681H631.478C631.603 170.747 631.725 169.717 631.725 168.719C631.725 159.307 625.055 151.485 615.332 151.485ZM369.058 151.734C364.944 151.734 360.955 153.386 358.991 157.811V152.326H351.948V184.988H358.991V168.532C358.991 161.208 364.414 159.059 369.058 159.403V151.734ZM376.911 152.326V184.988H383.956V152.326H376.911ZM464.24 152.326V184.988H471.313V152.326H464.24ZM497.431 157.874C501.669 157.874 505.784 160.306 506.781 165.916H487.551C488.548 161.023 492.133 157.874 497.431 157.874ZM615.269 157.874C619.508 157.874 623.622 160.306 624.62 165.916H605.389C606.387 161.023 609.971 157.874 615.269 157.874ZM323.803 158.092C329.725 158.092 334.182 162.455 334.182 168.346C334.182 174.205 329.725 178.599 323.803 178.599C317.851 178.599 313.394 174.205 313.394 168.346C313.394 162.455 317.851 158.092 323.803 158.092ZM279.953 158.216C285.844 158.216 290.27 162.58 290.27 168.657C290.27 174.734 285.844 179.129 279.953 179.129C274.063 179.129 269.637 174.734 269.637 168.657C269.637 162.58 274.063 158.216 279.953 158.216Z" fill="white"/>
</svg>
