<svg width="450" height="129" viewBox="0 0 450 129" fill="none" xmlns="http://www.w3.org/2000/svg">
<path d="M62.0361 90.719C62.1981 91.047 62.6871 91.373 63.0901 91.373H63.7331H65.2631H65.9061C66.3081 91.373 66.7951 91.047 66.9601 90.719L78.4761 61.39C79.2021 59.868 79.7671 59.945 79.7671 61.638V79.602C79.7671 81.378 78.7991 82.752 77.6771 82.752C76.5401 82.752 75.6581 84.118 75.6581 85.888V93.303H95.2331V87.984L95.3161 85.888C95.3161 84.118 94.3501 82.752 93.2201 82.752C92.2551 82.752 91.5321 81.864 91.2031 80.652V50.765C91.2031 49.072 92.0121 47.701 93.2201 47.701C94.3491 47.701 95.3161 46.256 95.3161 44.557V36.337H77.5111L64.2121 68.245L50.9201 36.336H32.9521V44.556C32.9521 46.255 33.8341 47.7 34.9681 47.7C36.1771 47.7 37.0591 49.071 37.0591 50.764V79.602C37.0591 81.378 36.1771 82.752 34.9681 82.752C33.8341 82.752 32.9521 84.118 32.9521 85.888L32.8691 93.303H52.5331V85.888C52.5331 84.118 51.6471 82.752 50.5171 82.752C49.3921 82.752 48.4201 81.378 48.4201 79.602V61.638C48.4201 59.945 48.9881 59.868 49.7111 61.39L62.0361 90.719Z" fill="#EC1C2E"/>
<path d="M64.377 0C99.825 0 128.754 28.923 128.754 64.375C128.754 99.832 99.826 128.75 64.377 128.75C28.925 128.75 0 99.832 0 64.375C0 28.922 28.925 0 64.377 0ZM64.377 12.811C36.013 12.811 12.81 35.934 12.81 64.375C12.81 92.739 36.013 115.94 64.377 115.94C92.819 115.94 115.942 92.739 115.942 64.375C115.942 35.934 92.819 12.811 64.377 12.811Z" fill="#EC1C2E"/>
<path d="M161.59 85.407V43.21H174.332L182.029 71.965L189.631 43.21H202.372V85.407H194.5V52.149L186.098 85.407H177.869L169.55 52.149V85.407H161.59Z" fill="#EC1C2E"/>
<path d="M216.889 64.176L209.535 62.851C210.334 59.844 211.751 57.628 213.789 56.215C215.821 54.797 218.738 54.094 222.728 54.094C226.347 54.094 229.003 54.531 230.767 55.425C232.547 56.215 233.78 57.368 234.585 58.695C235.286 59.931 235.639 62.411 235.639 65.86L235.544 75.326C235.544 78.065 235.639 80.014 235.909 81.252C236.173 82.574 236.702 83.905 237.412 85.407H229.357C229.181 84.875 228.917 84.079 228.552 83.018C228.481 82.492 228.382 82.23 228.294 82.05C226.877 83.378 225.46 84.436 223.868 85.059C222.279 85.76 220.594 86.116 218.835 86.116C215.642 86.116 213.167 85.239 211.402 83.55C209.536 81.78 208.66 79.659 208.66 77.006C208.66 75.327 209.099 73.729 209.898 72.407C210.678 71.076 211.931 70.015 213.342 69.305C214.848 68.602 216.964 67.984 219.806 67.452C223.605 66.742 226.178 66.031 227.676 65.42V64.62C227.676 63.03 227.323 61.967 226.524 61.263C225.735 60.636 224.31 60.288 222.192 60.288C220.692 60.288 219.626 60.553 218.835 61.167C218.035 61.701 217.329 62.675 216.889 64.176ZM227.675 70.72C226.612 71.076 225.015 71.437 222.728 71.968C220.512 72.407 219.008 72.939 218.298 73.382C217.33 74.087 216.798 75.06 216.798 76.21C216.798 77.359 217.146 78.331 218.036 79.124C218.835 79.926 219.979 80.367 221.217 80.367C222.729 80.367 224.138 79.925 225.46 78.953C226.435 78.245 227.058 77.358 227.323 76.297C227.588 75.592 227.676 74.264 227.676 72.317L227.675 70.72Z" fill="#EC1C2E"/>
<path d="M270.229 63.822L262.265 65.328C262 63.736 261.389 62.497 260.418 61.701C259.521 60.905 258.291 60.46 256.782 60.46C254.743 60.46 253.16 61.166 251.915 62.582C250.765 64.002 250.142 66.298 250.142 69.572C250.142 73.197 250.764 75.761 251.915 77.269C253.16 78.77 254.836 79.479 256.859 79.479C258.38 79.479 259.613 79.039 260.671 78.154C261.646 77.269 262.264 75.762 262.705 73.645L270.673 75.059C269.876 78.687 268.287 81.426 265.892 83.285C263.593 85.144 260.418 86.116 256.517 86.116C252.004 86.116 248.466 84.701 245.814 81.874C243.164 79.039 241.826 75.142 241.826 70.109C241.826 65.059 243.164 61.166 245.814 58.335C248.466 55.507 252.097 54.093 256.604 54.093C260.314 54.093 263.327 54.887 265.547 56.481C267.747 58.163 269.258 60.553 270.229 63.822Z" fill="#EC1C2E"/>
<path d="M276.068 85.407V43.21H284.214V65.59L293.676 54.799H303.589L293.151 65.946L304.377 85.407H295.626L287.916 71.698L284.214 75.592V85.407H276.068Z" fill="#EC1C2E"/>
<path d="M326.849 75.679L334.993 77.003C333.924 79.926 332.244 82.228 330.034 83.729C327.83 85.319 324.987 86.117 321.63 86.117C316.328 86.117 312.427 84.352 309.869 80.9C307.836 78.066 306.762 74.531 306.762 70.374C306.762 65.241 308.096 61.262 310.746 58.426C313.408 55.506 316.769 54.097 320.825 54.097C325.349 54.097 328.98 55.597 331.631 58.598C334.194 61.61 335.516 66.213 335.345 72.407H315.083C315.172 74.793 315.794 76.741 317.034 78.066C318.258 79.393 319.856 80.012 321.713 80.012C322.958 80.012 324.016 79.659 324.898 79.041C325.797 78.331 326.408 77.179 326.849 75.679ZM327.389 67.45C327.291 65.151 326.678 63.385 325.521 62.142C324.38 60.904 322.958 60.286 321.371 60.286C319.586 60.286 318.093 60.994 316.936 62.231C315.795 63.559 315.26 65.24 315.26 67.45H327.389Z" fill="#EC1C2E"/>
<path d="M369.76 85.407H361.709V69.75C361.709 66.48 361.537 64.359 361.175 63.384C360.827 62.409 360.292 61.61 359.499 61.084C358.7 60.555 357.818 60.287 356.667 60.287C355.256 60.287 354.011 60.732 352.942 61.436C351.796 62.232 351.008 63.21 350.649 64.535C350.207 65.773 350.032 68.16 350.032 71.522V85.408H341.886V54.8H349.414V59.309C352.07 55.864 355.431 54.096 359.498 54.096C361.262 54.096 362.947 54.449 364.37 55.067C365.873 55.693 367.02 56.571 367.72 57.544C368.525 58.519 369.054 59.672 369.309 60.907C369.671 62.232 369.76 64.006 369.76 66.388V85.407Z" fill="#EC1C2E"/>
<path d="M374.709 85.407V79.041L386.122 65.946C388.077 63.736 389.401 62.23 390.282 61.348C389.4 61.434 388.155 61.434 386.661 61.434L375.778 61.523V54.799H401.087V60.554L389.4 73.994L385.333 78.507C387.537 78.331 388.954 78.243 389.487 78.243H401.964V85.406H374.709V85.407Z" fill="#EC1C2E"/>
<path d="M407.453 43.21H415.5V50.641H407.453V43.21ZM407.453 54.797H415.5V85.406H407.453V54.797Z" fill="#EC1C2E"/>
<path d="M441.52 75.679L449.559 77.003C448.507 79.926 446.899 82.228 444.6 83.729C442.396 85.319 439.57 86.117 436.196 86.117C430.884 86.117 427.004 84.352 424.437 80.9C422.403 78.066 421.428 74.531 421.428 70.374C421.428 65.241 422.75 61.262 425.406 58.426C428.062 55.506 431.419 54.097 435.407 54.097C440.009 54.097 443.541 55.597 446.193 58.598C448.859 61.61 450.094 66.213 449.995 72.407H429.739C429.739 74.793 430.449 76.741 431.685 78.066C432.93 79.393 434.439 80.012 436.292 80.012C437.62 80.012 438.678 79.659 439.57 79.041C440.358 78.331 441.063 77.179 441.52 75.679ZM441.955 67.45C441.86 65.151 441.249 63.385 440.092 62.142C438.94 60.904 437.618 60.286 435.942 60.286C434.162 60.286 432.659 60.994 431.512 62.231C430.36 63.559 429.831 65.24 429.831 67.45H441.955Z" fill="#EC1C2E"/>
</svg>
