<svg width="530" height="154" viewBox="0 0 530 154" fill="none" xmlns="http://www.w3.org/2000/svg">
<g clip-path="url(#clip0_17_199)">
<mask id="mask0_17_199" style="mask-type:luminance" maskUnits="userSpaceOnUse" x="-16" y="-5" width="564" height="163">
<path d="M547.376 -4.78381H-15.1079V157.806H547.376V-4.78381Z" fill="white"/>
</mask>
<g mask="url(#mask0_17_199)">
<path d="M464.657 48.9373C464.657 46.4907 462.679 44.5094 460.227 44.5094H453.666C451.218 44.5094 449.239 46.4992 449.239 48.9468L449.244 117.414C449.244 119.861 451.222 121.844 453.669 121.844H460.227C462.679 121.844 464.657 119.851 464.657 117.407V48.9373Z" fill="white"/>
</g>
<mask id="mask1_17_199" style="mask-type:luminance" maskUnits="userSpaceOnUse" x="-16" y="-5" width="564" height="163">
<path d="M547.376 -4.78381H-15.1079V157.806H547.376V-4.78381Z" fill="white"/>
</mask>
<g mask="url(#mask1_17_199)">
<path d="M473.02 50.7581V54.0121C473.02 55.3603 474.122 56.447 475.472 56.447H520.728C522.794 56.447 524.468 54.7834 524.468 52.7224V47.211C524.468 45.151 522.772 43.2866 520.722 43.4885C520.722 43.4885 476.975 47.7708 475.568 47.9312C473.937 48.1139 473.02 49.409 473.02 50.7581Z" fill="white"/>
</g>
<mask id="mask2_17_199" style="mask-type:luminance" maskUnits="userSpaceOnUse" x="-16" y="-5" width="564" height="163">
<path d="M547.376 -4.78381H-15.1079V157.806H547.376V-4.78381Z" fill="white"/>
</mask>
<g mask="url(#mask2_17_199)">
<path d="M436.379 121.848C425.123 121.848 418.037 113.326 418.037 103.843L418.026 76.4469H414.804C413.087 76.4469 411.693 75.0648 411.693 73.3491V68.765C411.693 67.0504 413.094 65.6714 414.811 65.6714L418.026 65.6768L418.022 48.8342C418.022 46.4482 419.949 44.5157 422.339 44.5157H428.736C431.122 44.5157 433.053 46.462 433.053 48.847V65.6778L443.03 65.6746C444.75 65.6746 446.147 67.0546 446.147 68.7682V73.3544C446.147 75.069 444.754 76.4501 443.037 76.4501L433.056 76.449L433.064 101.788C433.064 106.764 436.087 110.161 441.484 110.161L442.39 110.155C444.257 110.155 445.773 111.652 445.773 113.51V118.49C445.773 120.352 444.26 121.85 442.397 121.85H436.379V121.848Z" fill="white"/>
</g>
<mask id="mask3_17_199" style="mask-type:luminance" maskUnits="userSpaceOnUse" x="-16" y="-5" width="564" height="163">
<path d="M547.376 -4.78381H-15.1079V157.806H547.376V-4.78381Z" fill="white"/>
</mask>
<g mask="url(#mask3_17_199)">
<path d="M330.948 75.4228C337.67 75.4228 343.47 80.1948 344.057 86.6497H317.946C318.531 80.1959 324.231 75.4238 330.948 75.4228V63.7018C312.752 63.7018 302.543 77.915 302.543 92.8963C302.543 108.855 313.476 122.909 331.069 122.909C343.111 122.909 354.983 116.577 357.223 106.18C357.528 104.777 356.58 102.936 354.6 102.928H345.994C344.434 102.928 343.158 103.677 342.387 104.803C339.928 108.405 336.319 110.321 330.984 110.321C323.452 110.321 318.225 104.394 317.832 97.8256L354.421 97.8235C357.793 97.8235 359.298 95.9984 359.298 92.8921C359.298 78.2869 350.636 63.7007 330.947 63.7007V75.4228H330.948Z" fill="white"/>
</g>
<mask id="mask4_17_199" style="mask-type:luminance" maskUnits="userSpaceOnUse" x="-16" y="-5" width="564" height="163">
<path d="M547.376 -4.78381H-15.1079V157.806H547.376V-4.78381Z" fill="white"/>
</mask>
<g mask="url(#mask4_17_199)">
<path d="M497.686 75.4228C504.403 75.4228 510.2 80.1948 510.79 86.6497H484.676C485.266 80.1959 490.968 75.4238 497.686 75.4228V63.7018C479.486 63.7018 469.277 77.915 469.277 92.8963C469.277 108.855 480.21 122.909 497.803 122.909C509.845 122.909 521.717 116.577 523.957 106.18C524.263 104.777 523.314 102.936 521.335 102.928H512.729C511.168 102.928 509.892 103.677 509.121 104.803C506.663 108.405 503.051 110.321 497.72 110.321C490.187 110.321 484.961 104.394 484.568 97.8256L521.156 97.8235C524.524 97.8235 526.034 95.9984 526.034 92.8921C526.034 78.2869 517.37 63.7007 497.686 63.7007V75.4228Z" fill="white"/>
</g>
<mask id="mask5_17_199" style="mask-type:luminance" maskUnits="userSpaceOnUse" x="-16" y="-5" width="564" height="163">
<path d="M547.376 -4.78381H-15.1079V157.806H547.376V-4.78381Z" fill="white"/>
</mask>
<g mask="url(#mask5_17_199)">
<path d="M405.719 45.2785H287.198C284.5 45.2785 282.328 47.4574 282.328 50.1483L282.735 96.604C282.735 96.604 257.193 50.5648 255.862 48.2149C254.611 46.003 251.923 43.9708 248.202 43.9708H238.455C235.76 43.9708 233.578 46.1507 233.578 48.8427L233.581 116.97C233.581 119.66 235.763 121.842 238.459 121.842H244.706C247.406 121.842 249.58 119.65 249.58 116.961L249.187 69.1995C249.187 69.1995 274.974 115.7 276.075 117.532C277.563 120.005 280.084 121.842 283.732 121.842L292.683 121.843C295.378 121.843 297.556 119.659 297.556 116.97L297.553 56.822L405.726 56.8252C407.566 56.8252 409.059 55.3443 409.059 53.5075V48.592C409.059 46.7573 407.559 45.2785 405.719 45.2785Z" fill="white"/>
</g>
<mask id="mask6_17_199" style="mask-type:luminance" maskUnits="userSpaceOnUse" x="-16" y="-5" width="564" height="163">
<path d="M547.376 -4.78381H-15.1079V157.806H547.376V-4.78381Z" fill="white"/>
</mask>
<g mask="url(#mask6_17_199)">
<path d="M386.537 74.8576C391.687 74.8576 395.546 76.7231 396.931 79.9463C397.597 81.4941 398.889 81.7937 400.667 81.7937H407.752C408.924 81.7937 410.269 80.7887 410.269 79.2611C410.269 71.0374 400.445 63.6965 386.529 63.6965C372.138 63.6965 362.685 70.5413 362.685 81.4378C362.685 89.7794 369.286 94.7427 377.404 96.8589C381.106 97.8246 387.421 99.3852 390.497 100.188C393.814 101.056 396.778 102.069 396.778 104.902C396.778 109.378 392.054 110.9 386.893 110.9C382.004 110.9 377.131 108.72 375.737 105.239C374.929 103.226 373.511 102.931 371.365 102.931H364.157C362.903 102.931 361.455 104.01 361.455 105.647V106.572C361.455 114.532 372.151 122.864 386.908 122.864C397.372 122.864 411.951 118.521 411.951 104.519C411.951 96.4085 406.511 90.7908 397.662 88.5482C394.203 87.6717 385.886 85.5587 384.077 85.0934C380.852 84.2626 377.84 83.213 377.84 80.4541C377.841 76.2759 381.71 74.8576 386.537 74.8576Z" fill="white"/>
</g>
<mask id="mask7_17_199" style="mask-type:luminance" maskUnits="userSpaceOnUse" x="-16" y="-5" width="564" height="163">
<path d="M547.376 -4.78381H-15.1079V157.806H547.376V-4.78381Z" fill="white"/>
</mask>
<g mask="url(#mask7_17_199)">
<path d="M124.167 29.5355C125.476 29.5355 126.538 28.4739 126.538 27.1643C126.538 25.8548 125.476 24.7932 124.167 24.7932C122.857 24.7932 121.795 25.8548 121.795 27.1643C121.795 28.4739 122.857 29.5355 124.167 29.5355Z" fill="white"/>
</g>
<mask id="mask8_17_199" style="mask-type:luminance" maskUnits="userSpaceOnUse" x="-16" y="-5" width="564" height="163">
<path d="M547.376 -4.78381H-15.1079V157.806H547.376V-4.78381Z" fill="white"/>
</mask>
<g mask="url(#mask8_17_199)">
<path d="M92.262 25.3371C93.3691 25.3371 94.2666 24.4429 94.2666 23.3399C94.2666 22.2368 93.3691 21.3427 92.262 21.3427C91.1548 21.3427 90.2573 22.2368 90.2573 23.3399C90.2573 24.4429 91.1548 25.3371 92.262 25.3371Z" fill="white"/>
</g>
<mask id="mask9_17_199" style="mask-type:luminance" maskUnits="userSpaceOnUse" x="-16" y="-5" width="564" height="163">
<path d="M547.376 -4.78381H-15.1079V157.806H547.376V-4.78381Z" fill="white"/>
</mask>
<g mask="url(#mask9_17_199)">
<path d="M68.3484 74.1118L67.3774 73.0697C70.0907 70.5551 72.9644 66.5426 73.4265 64.1916C73.8589 61.9999 77.0162 62.3494 76.4159 64.7312C75.6479 67.7738 71.9126 71.4528 68.3484 74.1118Z" fill="white"/>
</g>
<mask id="mask10_17_199" style="mask-type:luminance" maskUnits="userSpaceOnUse" x="-16" y="-5" width="564" height="163">
<path d="M547.376 -4.78381H-15.1079V157.806H547.376V-4.78381Z" fill="white"/>
</mask>
<g mask="url(#mask10_17_199)">
<path d="M48.1072 26.1657C43.1131 28.3223 42.379 33.4322 45.8848 36.5003C50.1076 40.1941 57.0724 36.9783 56.4 31.3245C62.0665 31.6124 65.7179 25.7705 64.8191 21.6741C67.3401 19.5154 67.5908 14.9165 64.5641 13.1073C61.3272 11.1706 58.2718 11.9143 56.3298 15.6474C51.1445 15.2713 46.1727 19.3443 48.1072 26.1657L45.7031 25.1182C42.5352 18.504 48.0817 11.7485 54.8872 13.3049C56.2587 10.0222 61.325 6.61311 66.7983 9.92021C71.1698 12.558 72.093 19.373 67.4452 22.6791C69.6347 29.0362 65.2706 34.2353 58.6213 33.6415C57.8394 41.8195 50.1108 42.8723 45.1167 38.9915C42.2983 36.7999 41.1414 33.7615 40.6028 31.4679C40.0323 29.0404 40.0248 26.8669 37.6282 24.3682C35.8201 22.4825 32.5873 22.5463 32.5873 22.5463C32.5873 16.6056 27.0153 11.1664 20.1015 13.801C17.6538 11.6933 14.624 11.484 12.4525 14.0889C11.1936 15.6017 10.4957 19.577 14.3871 21.3968C14.1842 26.8127 18.3231 30.2696 24.3711 29.7894C24.6112 32.6663 27.8078 35.3413 30.6411 35.7248L30.6156 37.1706C27.5889 36.8827 25.9561 37.9355 23.9376 40.4289C16.8305 40.0921 11.8512 43.2494 12.0584 48.3413C7.06109 49.2868 6.12622 54.5104 8.95952 57.2905C11.7928 60.0696 15.9466 58.9797 17.3617 55.6598C22.4068 56.6202 26.858 53.0135 27.062 48.8565C31.7682 48.8565 33.8303 46.9942 34.6015 42.6736L36.3799 42.817C36.9037 47.4723 34.7471 51.8885 29.1272 51.3605C28.9817 56.9145 23.5807 60.0218 18.5398 58.1054C16.1867 62.5131 10.7931 64.2776 6.27176 59.973C1.90018 55.816 3.4969 48.7003 9.21023 46.974C9.3409 41.5305 13.3747 36.3558 21.2053 38.3488C21.2053 38.3488 22.2124 35.9171 24.66 35.7726C23.0272 35.1033 21.7906 34.2045 21.456 32.526C15.5493 33.7849 10.5297 28.3573 11.8757 22.8937C6.54373 20.0912 6.4598 14.8389 9.10506 11.7167C11.8576 8.46373 16.448 7.74558 20.554 11.2492C27.504 7.4035 35.3675 12.1118 34.8873 20.0179C39.7508 19.696 42.703 23.9369 42.1612 28.3573C42.9654 26.4111 43.9003 25.5081 45.701 25.1172L48.1072 26.1657Z" fill="white"/>
</g>
<mask id="mask11_17_199" style="mask-type:luminance" maskUnits="userSpaceOnUse" x="-16" y="-5" width="564" height="163">
<path d="M547.376 -4.78381H-15.1079V157.806H547.376V-4.78381Z" fill="white"/>
</mask>
<g mask="url(#mask11_17_199)">
<path d="M60.0526 16.6768L61.2308 17.515C58.9467 22.3157 54.913 27.4182 51.4539 30.2228L50.1377 29.2338C52.5854 25.2542 57.844 18.6899 60.0526 16.6768Z" fill="white"/>
</g>
<mask id="mask12_17_199" style="mask-type:luminance" maskUnits="userSpaceOnUse" x="-16" y="-5" width="564" height="163">
<path d="M547.376 -4.78381H-15.1079V157.806H547.376V-4.78381Z" fill="white"/>
</mask>
<g mask="url(#mask12_17_199)">
<path d="M26.0307 43.0582L26.8243 44.2321C23.9442 47.178 18.6155 51.1087 15.7822 52.4738L14.6763 51.2776C17.415 48.3306 22.6492 44.4711 26.0307 43.0582Z" fill="white"/>
</g>
<mask id="mask13_17_199" style="mask-type:luminance" maskUnits="userSpaceOnUse" x="-16" y="-5" width="564" height="163">
<path d="M547.376 -4.78381H-15.1079V157.806H547.376V-4.78381Z" fill="white"/>
</mask>
<g mask="url(#mask13_17_199)">
<path d="M32.9191 28.7844L31.5295 30.5033C27.7614 28.0355 20.3164 21.3979 18.6357 19.0012L19.8107 17.8103C23.4121 19.6312 30.4459 25.8863 32.9191 28.7844Z" fill="white"/>
</g>
<mask id="mask14_17_199" style="mask-type:luminance" maskUnits="userSpaceOnUse" x="-16" y="-5" width="564" height="163">
<path d="M547.376 -4.78381H-15.1079V157.806H547.376V-4.78381Z" fill="white"/>
</mask>
<g mask="url(#mask14_17_199)">
<path d="M25.9256 91.7586C26.3579 93.913 25.9946 96.2969 27.9398 98.6235C28.6239 99.4404 32.4027 104.405 35.1415 106.968C31.4211 108.429 23.9761 111.449 18.6219 112.119C17.5489 112.252 16.3421 113.006 15.3339 113.58C14.6614 114.727 13.9698 116.765 13.6788 119.073C13.4716 120.72 13.4971 122.555 13.4971 124.428C13.4971 126.074 14.3735 131.264 16.221 134.742C18.0726 138.223 19.8478 139.781 22.0331 140.8C22.4623 140.609 23.4152 140.465 24.9025 140.435C28.9469 140.345 32.1148 142.573 33.5076 144.489C34.0419 145.223 35.1149 145.37 36.5225 145.37C39.7882 145.37 43.3747 144.299 46.7827 143.003C47.5168 142.405 49.5693 141.039 51.5867 139.457C53.602 137.875 64.8406 128.363 69.8082 125.967C72.4269 127.38 76.722 129.202 81.1626 129.202C81.4208 129.202 82.2759 129.215 83.1811 129.01C84.5674 128.699 86.3416 128.08 88.5821 127.646C92.5893 126.864 97.2891 126.179 98.6564 126.2C102.341 126.261 113.143 126.537 115.703 126.537C118.391 126.537 122.22 126.304 123.682 126.161C125.941 125.417 130.982 124.028 135.808 121.8C140.624 119.669 150.764 112.645 152.422 111.041C153.222 110.321 153.942 109.536 154.469 108.83C154.669 108.559 154.738 108.451 154.738 108.235C154.738 108.02 154.687 101.137 154.687 101.137C154.687 101.137 157.106 98.4514 158.033 97.525C158.124 97.4347 158.131 97.3147 158.117 97.2265C157.699 95.8465 157.284 91.5631 157.52 87.2244L155.068 86.0824C154.974 91.4834 152.999 96.0791 151.148 98.9401C147.5 99.5148 140.535 101.671 138.029 104.515L139.408 104.906C141.761 103.611 144.281 102.702 147.162 102.702C149.708 102.702 150.833 103.371 150.833 104.084C150.833 104.585 150.356 105.791 150.168 106.167C149.949 106.606 149.804 107.156 149.374 107.624C145.941 111.344 142.046 114.522 137.307 117.156C134.106 118.937 131.091 120.143 126.37 121.474C124.959 121.872 123.025 122.444 121.763 122.876C119.987 122.827 110.695 122.552 105.268 122.552C99.842 122.552 88.6543 123.341 85.1018 124.241C83.486 124.648 83.0865 125.294 81.2136 125.294C77.7078 125.294 73.111 123.521 70.2884 122.155C69.8804 122.275 68.8627 122.726 67.8407 123.233C65.836 124.227 61.3805 130.398 58.7884 128.529C57.4679 131.237 51.7545 133.8 49.8019 136.608C50.0165 135.134 52.3229 125.61 52.5364 123.705C52.5768 123.365 52.6097 123.094 52.3951 122.734C50.3076 119.26 44.4806 117.051 41.1926 116.408C40.2291 116.219 39.7531 116.084 39.1051 115.94L33.9187 114.377L29.1105 115.94L34.6613 117.002L27.6158 121.655C28.8417 121.188 36.428 119.087 36.9889 118.919C37.6104 118.735 38.4401 118.557 39.342 118.872C40.3746 119.232 43.3025 119.901 45.049 120.507C46.071 120.861 47.7474 122.735 48.1808 123.742C48.3582 124.155 48.4241 125.029 48.5409 126.976C48.6132 128.197 48.2976 129.894 48.0023 131.219C47.2236 134.675 45.6492 137.372 45.1541 138.332C44.47 139.663 43.5171 140.097 42.5833 140.532C41.0482 141.25 39.1752 141.707 37.0877 141.731C35.6546 141.747 34.6985 141.668 34.0834 140.845C32.1626 138.257 27.4097 135.74 22.5611 136.675C19.5822 134.878 16.6332 129.079 16.6332 124.458C16.6332 121.691 18.0365 117.327 18.7897 115.132C23.6351 114.488 33.327 110.802 38.0481 108.664C39.0297 108.617 41.744 107.657 44.3361 107.657C50.6752 107.657 56.9643 113.193 60.7824 116.931C61.4081 115.901 62.5831 114.343 65.8233 114.343C70.316 114.343 72.8837 118.416 74.1702 122.601L76.5084 120.907C76.1015 118.511 74.8469 115.887 72.9549 113.999C71.4091 112.455 68.4558 111.173 66.1494 111.173C64.7567 111.173 63.3161 111.484 62.4036 111.484C59.1985 111.484 57.8928 110.059 55.5259 108.429C52.9688 106.667 48.2116 104.112 44.8142 104.112C42.6321 104.112 41.6463 104.965 39.8456 104.974C37.1907 104.985 36.2091 103.888 34.9354 102.309C34.3819 101.619 31.6941 99.2407 30.9739 98.2825C30.5627 97.7332 29.8318 95.4853 29.5662 94.3603L25.9256 91.7586Z" fill="white"/>
</g>
<mask id="mask15_17_199" style="mask-type:luminance" maskUnits="userSpaceOnUse" x="-16" y="-5" width="564" height="163">
<path d="M547.376 -4.78381H-15.1079V157.806H547.376V-4.78381Z" fill="white"/>
</mask>
<g mask="url(#mask15_17_199)">
<path d="M29.5706 94.3645C30.3419 95.1857 31.0834 96.0951 32.047 96.8249C32.9776 97.5303 34.1494 98.1454 35.2521 98.7659C36.8116 99.6455 38.5794 100.652 40.3291 101.211C41.8631 101.674 43.8604 101.865 45.7301 101.865C48.3955 101.865 51.5422 101.313 54.1461 102.529C55.8926 103.34 56.0084 105.182 57.3979 105.722C59.5587 106.562 65.5632 106.754 68.8905 106.754C75.4813 106.754 82.6097 105.919 86.8251 104.914L84.7705 102.657C81.8533 103.125 73.3024 104.052 69.3749 104.052C63.8464 104.052 58.6239 103.169 58.6239 100.887C58.6239 99.3066 60.3289 97.0247 63.5702 97.0247C67.0505 97.0247 72.3102 99.127 73.2854 99.4149C74.2564 99.7028 74.6527 99.6295 75.2635 99.3438L77.3043 98.2963C74.6017 97.0374 65.1818 93.8078 61.9044 93.8078C60.3555 93.8078 59.5109 94.0309 58.5038 95.3238C57.2418 96.9407 53.8815 98.4153 48.5166 98.4153C45.5739 98.4153 41.3628 97.8873 40.4385 97.5091C38.8237 96.8451 35.659 95.0126 33.6331 93.5561C31.025 91.6789 28.7484 89.5946 27.1846 87.1586C26.697 86.3969 26.4973 85.5767 26.5047 84.8225C26.5121 84.1872 26.6864 83.6008 26.7522 83.1333C27.2175 83.7803 27.7232 84.2477 28.3702 84.8533C31.2035 87.608 35.386 89.6742 39.6853 90.4976C40.9145 90.7323 42.0023 90.914 43.2091 90.914C45.0459 90.914 46.7372 89.9324 47.8166 88.9731L46.1295 87.013C45.5835 87.1766 44.4563 87.1767 43.7106 87.1767C37.4692 87.1767 29.5473 83.1036 27.7264 78.3878C27.5447 77.9236 27.3291 77.6696 27.5076 77.2383C27.6892 76.8081 27.9144 75.8913 28.0494 75.0456C28.4127 75.4663 29.1691 76.0984 30.1294 76.7135C32.4464 78.2008 36.869 80.2544 37.738 80.7962C39.9679 80.1556 41.6443 79.4045 42.968 78.7192C44.263 78.0478 46.0414 77.4423 48.096 77.4423C52.6566 77.4423 57.9015 80.0376 62.8223 82.4556L66.1836 81.1393C61.8152 78.0712 52.3082 73.7836 47.0272 73.7836C43.9028 73.7836 40.975 76.0602 38.8875 76.0602C36.3272 76.0602 28.9842 72.4885 28.9842 69.5108C28.9842 67.2214 33.734 65.9253 41.3755 64.9852C40.0593 66.9324 38.8004 68.9445 37.6297 71.0204L39.5716 72.0976C51.5412 54.8036 63.9877 43.5713 74.4593 36.7297C78.2636 34.246 79.1294 32.7927 80.4605 30.0773C83.7007 23.4631 86.7635 18.3765 92.0806 18.3765C94.5686 18.3765 96.5945 19.7661 97.9872 21.4903L101.843 22.6408L97.9394 25.2755L101.925 26.8573C96.7241 28.3138 89.6212 33.3642 86.7412 40.7688C81.1978 41.0631 78.5217 45.5409 76.7136 49.2921C75.4919 51.8215 73.5457 52.8308 70.7124 54.7473L48.0503 70.5158L51.1715 70.9471L72.1062 56.9538C76.2377 54.1746 78.1988 52.1254 79.1878 50.1494C81.1341 46.2761 83.2216 43.3939 87.3276 43.3939C89.3461 43.3939 91.5069 44.2555 93.2343 45.8851L96.9079 47.0813L92.8996 49.5279L96.2609 51.5878C86.6551 54.59 80.7017 61.4592 77.2469 74.5899L79.7891 75.1646C81.0661 70.8164 82.3239 66.8283 84.575 63.3077C90.1365 63.244 95.7733 63.041 101.302 63.041C116.058 63.041 128.307 63.6625 134.919 65.6077L132.581 61.5559C125.506 60.3554 115.246 59.7361 101.302 59.7361C96.6285 59.7361 91.8925 59.9082 87.1895 59.957C90.2225 56.753 94.5951 54.0525 101.327 51.9703L96.5478 49.3484L101.854 46.4131L94.627 43.7296C93.3649 42.5982 91.7905 41.555 89.8114 41.0599C92.1284 33.9623 100.01 29.816 107.568 26.9572L102.276 24.8006L107.615 21.8855L99.3917 19.2657C97.2457 16.7501 95.1794 15.5995 92.0115 15.5995C84.3849 15.5995 81.1808 22.2084 78.1552 28.0673C76.5617 31.1513 75.5578 32.4495 72.852 34.2173C66.9857 38.046 59.5109 43.8974 52.3751 51.3955C48.6473 48.711 41.0271 40.8697 38.9618 36.5906C38.147 37.5966 37.3439 39.7872 37.3439 39.7872C38.1183 40.6095 47.0952 49.6554 50.4299 53.4894C50.1792 53.7678 49.9275 54.0493 49.6767 54.3308C46.12 55.0352 36.8849 55.919 33.7393 55.493L31.9748 58.6206C34.3247 58.3901 43.5013 57.3118 47.3088 57.0897C46.1518 58.4846 45.0204 59.9262 43.9188 61.4082C32.1171 62.7489 24.2313 65.1615 24.2313 69.5108C24.2313 70.2289 24.5223 71.0416 24.5223 71.8097C24.5223 73.6316 23.835 74.303 22.54 75.1179C21.6933 75.6491 21.6381 76.0166 21.9982 76.5202C22.3615 77.028 24.1835 79.7168 24.1835 80.2448C24.1835 81.1212 23.3145 81.9892 22.6122 82.7721C21.9982 83.4563 22.0237 83.6358 22.5028 84.4984L25.9257 91.7596L29.5706 94.3645Z" fill="white"/>
</g>
<mask id="mask16_17_199" style="mask-type:luminance" maskUnits="userSpaceOnUse" x="-16" y="-5" width="564" height="163">
<path d="M547.376 -4.78381H-15.1079V157.806H547.376V-4.78381Z" fill="white"/>
</mask>
<g mask="url(#mask16_17_199)">
<path d="M175.685 53.9601C174.929 54.7515 174.267 55.595 173.711 56.4948L171.808 53.8283C178.159 45.3869 194.922 41.4275 204.757 40.7316V36.2028C203.51 36.5863 202.164 37.0198 200.916 37.314C199.152 37.7358 197.534 38.131 196.162 38.0959C194.783 38.0609 193.674 37.5106 193.158 36.7776C191.838 34.8972 193.063 32.0565 197.384 29.3984L193.976 26.5705C191.346 29.9732 188.752 33.7307 186.117 35.9765C183.723 38.0152 181.214 39.0319 179.185 37.5212C178.097 36.7096 177.686 36.3356 177.578 34.2152C177.726 31.0961 179.622 26.3336 181.298 23.2655L177.265 22.7927C176.545 27.4905 174.617 31.4945 172.552 34.8005C169.976 38.9214 166.655 41.8152 163.24 44.1811L161 41.9788C163.756 40.3534 167.208 37.7124 169.583 34.0717C172.34 29.8436 174.573 24.6157 174.577 19.8638L186.245 20.9655C184.605 23.0445 181.899 27.7847 180.873 31.1906C180.339 32.9658 180.367 34.3788 181.011 34.8621C182.248 35.7864 184.415 34.3108 186.517 32.0596C189.481 28.8821 192.388 24.0888 193.665 22.3774L202.102 29.3623C198.356 31.3447 194.719 33.6139 195.439 34.8855C196.101 36.0456 198.505 35.6982 201.138 34.8908C203.295 34.229 205.583 33.2346 207.398 32.1776V43.5596C203.328 43.5054 196.44 44.264 189.805 46.2697C191.384 48.4932 195.916 49.3101 198.79 49.7043L197.349 58.9425C190.088 55.901 184.487 54.1279 175.685 53.9601L178.595 51.4667C185.083 51.5995 191.587 53.4799 195.271 55.3316L195.798 51.8343C192.481 51.3945 188.299 49.5162 186.527 47.3777C183.639 48.4645 180.904 49.8147 178.594 51.4678L175.685 53.9601Z" fill="white"/>
</g>
<mask id="mask17_17_199" style="mask-type:luminance" maskUnits="userSpaceOnUse" x="-16" y="-5" width="564" height="163">
<path d="M547.376 -4.78381H-15.1079V157.806H547.376V-4.78381Z" fill="white"/>
</mask>
<g mask="url(#mask17_17_199)">
<path d="M140.914 83.3097L143.617 77.4891C140.787 74.148 137.601 69.9219 134.917 65.6067L132.579 61.5548C127.175 51.3085 129.142 46.4153 126.258 41.9066C123.875 38.181 112.296 40.499 110.375 40.8995L113.725 35.3657L107.123 35.8916L112.717 29.2561C113.328 28.3924 113.619 27.6031 114.266 25.3021C115.248 21.8069 118.264 15.8365 127.076 15.8365C136.856 15.8365 139.889 23.7361 144.156 27.1665C148.993 31.0568 155.339 36.5194 160.998 41.9778L163.239 44.1801C166.13 47.1292 169.084 50.159 171.808 53.8294L173.71 56.4959C185.488 73.6519 200.112 106.446 206.586 121.459C207.212 122.914 207.659 124.389 208.044 125.507C203.651 123.091 198.81 120.089 193.834 116.655L190.932 114.614C189.136 113.326 187.328 111.985 185.528 110.6L182.542 108.26C180.756 106.832 178.985 105.367 177.235 103.863L183.123 138.086C183.556 140.099 185.284 139.764 186.676 137.99C188.069 136.217 188.597 135.738 188.069 133.391L182.542 108.26L185.527 110.6L190.823 131.952C191.335 133.881 192.151 134.493 194.408 134.588C196.663 134.683 197.144 133.82 196.663 132.335L190.931 114.613L193.833 116.654L199.256 132.575C200.649 136.648 199.256 137.127 196.808 137.127C194.356 137.127 192.148 136.553 190.807 137.415C189.461 138.279 187.777 140.634 185.762 142.694C183.979 144.514 181.39 144.036 180.866 140.627L174.359 101.338C170.118 97.5314 166.085 93.538 162.477 89.4586C160.891 88.7861 159.105 87.9639 157.523 87.2277L155.071 86.0856C154.202 85.6862 153.559 85.3994 153.3 85.3261C151.5 87.4805 149.772 89.8899 147.757 91.6141C146.684 92.5299 145.953 93.0526 144.37 93.0526C143.879 93.0526 143.276 93.043 142.712 92.7285C142.108 92.3896 141.54 91.7119 140.911 90.7515C140.435 90.0217 139.73 89.09 139.112 88.0563C137.828 85.8997 136.438 83.1992 135.187 81.0118C133.784 78.5567 132.579 76.7168 132.412 76.4108C132.162 75.9434 131.477 75.3697 131.477 75.3697C130.793 76.4841 130.288 78.6417 130.288 79.8263L127.84 78.9987C128.164 77.3828 128.811 75.2985 129.171 74.2903C129.171 73.4277 128.2 72.2772 127.408 72.2772C126.291 72.2772 125.137 73.4989 124.564 75.8361L122.08 76.9143C122.368 73.1409 123.662 69.0073 127.409 69.0073C130.434 69.0073 132.307 71.3083 133.748 73.4628C135.19 75.6193 139.907 82.0529 140.914 83.3097L142.787 85.683C143.111 87.1576 143.743 88.0149 144.049 88.4876C144.696 89.4937 145.418 89.4225 146.389 88.5237C146.832 88.1147 148.258 86.9557 149.641 85.5141C150.841 84.2648 152.009 82.7499 152.477 81.9828C153.849 82.5979 156.409 83.8175 158.471 84.7258C149.626 73.8526 141.165 60.6572 137.496 51.6824C135.975 47.9759 138.943 46.7318 140.376 50.3895C144.264 60.3098 155.644 77.8492 163.998 87.0492C173.654 97.6844 191.371 113.073 202.893 119.253C201.22 116.002 199.017 111.328 196.47 105.918C182.452 98.0052 168.286 83.4754 161.681 70.9939L164.587 71.3306C170.73 82.1762 185.413 96.6465 194.084 100.851C186.151 84.0555 175.833 62.7787 167.781 53.6233C157.794 42.2689 146.883 33.4885 141.671 28.9183C136.535 24.4139 134.422 18.759 127.024 18.759C120.928 18.759 117.721 23.1455 116.498 27.5659C116.248 28.4286 116.102 28.9682 115.487 29.867L112.607 33.3164L118.837 32.5622L115.236 37.5945C115.236 37.5945 125.001 35.4082 128.417 40.039C132.101 45.031 129.722 50.637 135.764 61.5315C138.42 66.3216 144.849 74.932 147.003 76.8442L142.787 85.6841L140.914 83.3097Z" fill="white"/>
</g>
<mask id="mask18_17_199" style="mask-type:luminance" maskUnits="userSpaceOnUse" x="-16" y="-5" width="564" height="163">
<path d="M547.376 -4.78381H-15.1079V157.806H547.376V-4.78381Z" fill="white"/>
</mask>
<g mask="url(#mask18_17_199)">
<path d="M44.9396 84.8225L43.4629 83.8164C44.2883 83.128 45.9212 82.0455 47.5328 81.373C48.3657 81.0235 49.3154 80.8524 50.0027 80.8524C51.6579 80.8524 53.0836 81.543 54.4763 82.2834C56.6764 83.4552 59.1496 84.8288 61.0491 84.8288C61.7694 84.8288 62.4641 84.661 63.279 84.661C65.1519 84.661 66.9526 85.5002 67.9852 85.5002C68.6109 85.5002 69.0401 84.9404 69.4512 84.3497C70.4838 82.8656 71.9138 81.765 73.7325 81.0054C75.6894 80.1885 78.0457 79.8613 80.6059 79.8613C82.6212 79.8613 84.5558 80.1492 85.5639 80.3648C85.5639 80.3648 84.0257 82.2165 83.64 82.6255C81.6067 82.6255 77.7259 82.5596 75.2379 83.5583C73.707 84.1755 73.1652 85.0679 73.1652 86.3321C73.1652 88.1657 75.2124 88.8775 77.4964 89.569C78.8424 89.9781 80.352 90.0769 81.6247 90.0769C83.1917 90.0769 86.2003 89.4862 89.1717 88.835C92.755 88.0456 96.0897 87.1076 97.0607 86.7474L98.36 89.0719C94.3698 90.42 90.2893 91.6959 86.4988 92.465C84.356 92.8985 82.3163 93.1694 80.4976 93.1694C77.4571 93.1694 74.1543 91.8967 71.4453 90.6048C69.158 89.5159 67.1141 88.4429 65.2879 88.4429C63.2365 88.4429 61.3051 89.1484 59.4067 90.2309C58.4761 90.7621 55.6715 92.6913 53.1728 93.6729C51.2563 94.4272 49.6925 94.8458 47.7505 94.8458C46.02 94.8458 44.9863 94.6057 44.0918 93.9056L47.0993 92.0666C47.485 92.4544 48.1797 92.5235 48.6121 92.5235C49.0445 92.5235 49.5619 92.4693 50.74 91.9763C51.4125 91.6948 52.3983 91.0893 52.9731 90.7175C54.1587 89.9515 54.5592 89.5042 55.0245 89.1377C55.937 88.4196 56.2717 87.4667 55.1084 86.4298C54.5666 85.9422 53.9961 85.4482 53.261 85.0041C52.2241 84.3773 51.4709 83.7697 49.5874 83.7697C47.366 83.7675 45.8022 84.3752 44.9396 84.8225Z" fill="white"/>
</g>
<mask id="mask19_17_199" style="mask-type:luminance" maskUnits="userSpaceOnUse" x="-16" y="-5" width="564" height="163">
<path d="M547.376 -4.78381H-15.1079V157.806H547.376V-4.78381Z" fill="white"/>
</mask>
<g mask="url(#mask19_17_199)">
<path d="M86.861 86.0081C86.861 86.0081 85.071 85.5173 84.4463 85.4684C85.6648 83.8239 87.2435 82.4566 88.48 81.6238C90.9245 79.9782 93.4816 79.0709 97.3507 78.8393C98.4056 78.7756 100.548 78.5706 101.745 78.6226C102.825 78.6715 104.65 78.7427 106.328 79.0539C107.517 79.2749 108.627 79.6063 109.547 79.7487C110.111 79.8379 112.063 79.8103 112.74 79.702C115.479 79.2706 118.767 78.2168 120.498 77.2745L121.219 79.8985C117.519 81.7863 113.34 83.6008 109.515 83.6008C107.568 83.6008 105.496 83.4574 103.568 83.2736C100.17 82.9485 97.2243 82.4991 96.214 82.4991C93.4582 82.4991 89.4978 83.775 86.861 86.0081Z" fill="white"/>
</g>
<mask id="mask20_17_199" style="mask-type:luminance" maskUnits="userSpaceOnUse" x="-16" y="-5" width="564" height="163">
<path d="M547.376 -4.78381H-15.1079V157.806H547.376V-4.78381Z" fill="white"/>
</mask>
<g mask="url(#mask20_17_199)">
<path d="M84.1326 100.621L80.6523 99.0314C85.4754 96.5944 92.8471 94.1499 95.8737 93.6719C98.8961 93.1917 102.355 92.8337 104.348 92.1623C105.261 94.4633 107.061 96.9227 109.655 96.9227C110.604 96.9227 112.161 96.2066 113.721 95.5214C115.478 94.748 117.242 93.9024 118.154 93.4955C119.14 93.0589 122.349 91.6534 125.061 90.4497C126.101 89.9876 128.949 88.6352 129.113 88.5439L130.939 89.5255C130.393 91.92 129.48 94.8649 128.455 96.9705C128.051 97.7938 127.651 98.478 127.218 98.9666C126.422 99.8611 125.138 101.044 123.473 102.227C121.646 103.523 119.418 104.849 117.057 106.202C115.217 107.257 113.369 108.33 111.492 109.191L110.521 107.43C113.413 105.795 116.356 103.728 118.934 101.816C120.156 100.912 121.342 99.9982 122.186 99.228C122.815 98.6564 123.208 98.1805 123.52 97.7184C124.288 96.5923 125.536 94.389 125.921 93.3362C124.841 93.862 120.76 95.7806 118.934 96.7367C116.875 97.8172 113.533 99.5169 111.66 100.399C110.187 101.096 108.874 101.474 107.928 101.474C105.836 101.474 104.884 99.9716 104.372 99.0622C103.051 96.7123 101.636 96.4956 97.9156 96.4489C93.5929 96.3936 87.6607 98.1762 84.1326 100.621Z" fill="white"/>
</g>
<mask id="mask21_17_199" style="mask-type:luminance" maskUnits="userSpaceOnUse" x="-16" y="-5" width="564" height="163">
<path d="M547.376 -4.78381H-15.1079V157.806H547.376V-4.78381Z" fill="white"/>
</mask>
<g mask="url(#mask21_17_199)">
<path d="M104.436 89.7815C104.436 89.7815 103.927 87.728 103.686 86.9865C103.686 86.9865 104.289 86.7867 105.079 86.7867C106.378 86.7867 109.578 87.1469 110.905 87.1469C115.907 87.1469 117.754 85.5788 119.22 84.2552C120.472 83.1259 121.763 82.2112 125.167 82.2112C128.167 82.2112 131.612 83.4148 132.594 83.895L132.38 86.6189C130.915 85.8115 128.899 85.2601 127.121 85.2601C125.881 85.2601 124.764 85.3579 123.975 85.7637C123.088 86.2205 122.553 86.911 121.72 87.5899C120.836 88.3102 119.628 89.0134 118.046 89.5977C116.46 90.181 114.505 90.5719 111.576 90.5719C107.719 90.573 105.632 89.9324 104.436 89.7815Z" fill="white"/>
</g>
<mask id="mask22_17_199" style="mask-type:luminance" maskUnits="userSpaceOnUse" x="-16" y="-5" width="564" height="163">
<path d="M547.376 -4.78381H-15.1079V157.806H547.376V-4.78381Z" fill="white"/>
</mask>
<g mask="url(#mask22_17_199)">
<path d="M72.7529 110.373L75.055 109.42C77.1681 110.235 80.2234 111.162 82.3513 111.162C83.6282 111.162 84.6863 110.7 85.5522 110.317C86.2289 110.017 93.9139 106.254 97.7288 104.874C98.9399 104.433 100.169 104.19 100.769 104.19C101.682 104.19 101.733 104.599 101.995 105.018C102.716 106.167 108.382 114.248 108.96 114.871C113.771 113.392 118.7 111.236 121.54 108.508C124.504 105.664 126.959 102.363 129.338 99.8112C130.255 98.8253 131.389 97.9319 131.949 97.6365C134.408 96.3309 142.057 96.2162 145.272 96.3617L143.363 99.0548C137.7 99.0548 134.529 99.637 133.103 100.71C132.5 101.161 131.586 102.076 130.72 103.205C128.786 105.722 126.672 109.168 125.825 109.84C127.483 110.989 129.295 111.995 132.176 111.995C136.98 111.995 140.417 108.994 142.301 107.305L143.916 108.265C142.726 109.811 141.363 111.39 139.621 112.572C137.689 113.881 135.264 114.727 133.823 115.124C131.037 114.596 124.902 113.364 123.461 113.076C118.155 115.23 109.514 118.717 106.607 119.591C106.188 119.719 105.508 119.821 104.654 119.903C102.355 120.029 99.1651 120.013 96.2596 119.975C94.1976 119.947 92.2439 119.962 91.2655 119.783L88.7052 117.112C90.9638 117.543 91.8402 117.676 93.9532 117.676C98.9463 117.676 102.162 116.844 103.22 116.572C104.111 116.345 104.257 115.826 103.991 115.027C103.57 113.745 102.831 112.536 101.707 111.236C101.104 110.537 99.7431 109.33 99.1864 108.952C98.4991 108.486 97.8298 108.367 95.942 109.008C94.1955 109.601 88.7764 112.529 86.435 113.771C85.2855 114.379 84.3836 114.56 82.3141 114.074C80.114 113.559 74.8585 111.648 72.7529 110.373Z" fill="white"/>
</g>
<mask id="mask23_17_199" style="mask-type:luminance" maskUnits="userSpaceOnUse" x="-16" y="-5" width="564" height="163">
<path d="M547.376 -4.78381H-15.1079V157.806H547.376V-4.78381Z" fill="white"/>
</mask>
<g mask="url(#mask23_17_199)">
<path d="M87.7808 50.3268C88.8662 50.3268 89.7461 49.4469 89.7461 48.3615C89.7461 47.276 88.8662 46.3961 87.7808 46.3961C86.6953 46.3961 85.8154 47.276 85.8154 48.3615C85.8154 49.4469 86.6953 50.3268 87.7808 50.3268Z" fill="white"/>
</g>
</g>
<defs>
<clipPath id="clip0_17_199">
<rect width="529.47" height="153.047" fill="white"/>
</clipPath>
</defs>
</svg>
