<svg width="90" height="20" viewBox="0 0 90 20" fill="none" xmlns="http://www.w3.org/2000/svg">
<path d="M8.6681 10.6776C8.34356 9.88835 7.79179 9.2134 7.08287 8.7384C6.37395 8.2634 5.53986 8.00981 4.68652 8.00981C3.83317 8.00981 2.99908 8.2634 2.29016 8.7384C1.58124 9.2134 1.02947 9.88835 0.704933 10.6776C0.490011 11.2053 0.380262 11.77 0.381853 12.3399V19.6828H1.48627V15.2199L1.47957 12.6546C1.47957 12.5512 1.47455 12.4537 1.47455 12.3495C1.47156 11.5453 1.76936 10.7691 2.30945 10.1733C2.34712 10.1315 2.38478 10.0896 2.42412 10.0515C2.71655 9.75923 3.06196 9.52532 3.4419 9.36226C3.83591 9.19563 4.25935 9.10974 4.68714 9.10974C5.11494 9.10974 5.53838 9.19563 5.93238 9.36226C6.31221 9.5253 6.65749 9.75922 6.94975 10.0515C6.98909 10.0909 7.02675 10.1315 7.064 10.1725C7.6135 10.7748 7.91426 11.563 7.90568 12.3782C7.8971 13.1935 7.57982 13.9752 7.01776 14.5658C6.45571 15.1564 5.69068 15.512 4.87685 15.5609C4.06301 15.6099 3.26089 15.3485 2.63211 14.8295V16.134C2.76101 16.2046 2.89423 16.269 3.03178 16.3273C3.5561 16.5466 4.11879 16.6596 4.68714 16.6596C5.2555 16.6596 5.81818 16.5466 6.34251 16.3273C6.86172 16.1092 7.3334 15.792 7.73108 15.3932C8.53931 14.5819 8.99304 13.4834 8.99285 12.3382C8.99469 11.7682 8.88435 11.2034 8.6681 10.6759" fill="white"/>
<path d="M17.0801 15.1006C16.5862 15.4013 16.0178 15.5575 15.4396 15.5514C15.014 15.5551 14.5923 15.4695 14.2017 15.3002C13.4429 14.9715 12.8352 14.3699 12.4988 13.6145C12.3249 13.2234 12.2364 12.7997 12.2394 12.3716H19.7443C19.7456 11.7968 19.6359 11.2271 19.4212 10.6938C19.2112 10.1635 18.8913 9.68372 18.4825 9.28601C18.0838 8.88175 17.61 8.55918 17.0877 8.33642C16.5666 8.114 16.0057 8.00011 15.4392 8.00165C14.8703 8.00077 14.3071 8.11461 13.7832 8.33642C13.2613 8.55554 12.7894 8.87864 12.3963 9.28601C11.9907 9.68041 11.6711 10.1545 11.4576 10.6784C11.2428 11.2062 11.1331 11.7708 11.1345 12.3407C11.1342 13.1924 11.3854 14.0253 11.8566 14.7349C12.3278 15.4445 12.998 15.9991 13.7832 16.3293C14.3072 16.5503 14.8705 16.6634 15.4392 16.6616C16.0056 16.664 16.5665 16.5509 17.0877 16.3293C17.6067 16.1075 18.0797 15.7907 18.4825 15.3952C18.9072 14.9717 19.2404 14.4655 19.4614 13.9079H18.231C17.9599 14.4011 17.5625 14.8133 17.0797 15.1023L17.0801 15.1006ZM12.8851 10.3929C13.081 10.1327 13.315 9.90355 13.5794 9.71329C13.8437 9.52188 14.1361 9.37253 14.4461 9.27053C14.7661 9.16381 15.1014 9.11009 15.4388 9.1115C16.106 9.10308 16.7573 9.31456 17.2923 9.71329C17.8251 10.103 18.2288 10.6436 18.4511 11.2651H12.4118C12.525 10.9524 12.6847 10.6585 12.8855 10.3933" fill="white"/>
<path d="M38.3016 15.1006C37.8076 15.4013 37.2393 15.5575 36.6611 15.5514C36.2353 15.5551 35.8134 15.4695 35.4227 15.3002C34.664 14.9715 34.0565 14.3699 33.7203 13.6145C33.5463 13.2234 33.4578 12.7997 33.4608 12.3716H40.9657C40.9669 11.7967 40.8571 11.227 40.6422 10.6938C40.4325 10.1635 40.1127 9.68371 39.7039 9.28601C39.3052 8.88175 38.8314 8.55918 38.3091 8.33642C37.7881 8.114 37.2272 8.00011 36.6606 8.00165C36.0917 8.00076 35.5285 8.1146 35.0046 8.33642C34.4826 8.55551 34.0105 8.87862 33.6173 9.28601C33.2119 9.68045 32.8924 10.1545 32.6791 10.6784C32.4642 11.2061 32.3544 11.7708 32.356 12.3407C32.3556 13.1924 32.6068 14.0253 33.078 14.7349C33.5492 15.4445 34.2195 15.9991 35.0046 16.3293C35.5287 16.5503 36.0919 16.6634 36.6606 16.6616C37.227 16.664 37.7879 16.5509 38.3091 16.3293C38.8281 16.1075 39.3012 15.7907 39.7039 15.3952C40.1286 14.9717 40.4618 14.4655 40.6828 13.9079H39.4524C39.1813 14.401 38.784 14.8132 38.3012 15.1023L38.3016 15.1006ZM34.1065 10.3929C34.3025 10.1327 34.5368 9.90353 34.8013 9.71329C35.0655 9.52181 35.3579 9.37246 35.668 9.27053C35.988 9.16381 36.3233 9.11009 36.6606 9.1115C37.3277 9.10314 37.9789 9.31462 38.5137 9.71329C39.0466 10.1029 39.4503 10.6435 39.6726 11.2651H33.6332C33.7464 10.9523 33.9061 10.6584 34.107 10.3933" fill="white"/>
<path d="M59.8052 15.1006C59.3113 15.4013 58.7429 15.5575 58.1647 15.5514C57.7389 15.5551 57.3171 15.4695 56.9264 15.3002C56.1677 14.9715 55.5602 14.3699 55.2239 13.6145C55.05 13.2234 54.9615 12.7997 54.9645 12.3716H62.4694C62.4707 11.7967 62.3608 11.227 62.1459 10.6938C61.9361 10.1635 61.6163 9.6837 61.2076 9.28601C60.8089 8.88175 60.3351 8.55918 59.8127 8.33642C59.2917 8.114 58.7308 8.00011 58.1643 8.00165C57.5954 8.00076 57.0322 8.1146 56.5083 8.33642C55.9862 8.55551 55.5142 8.87862 55.121 9.28601C54.7156 9.68045 54.3961 10.1545 54.1827 10.6784C53.9678 11.2061 53.8581 11.7708 53.8596 12.3407C53.8593 13.1924 54.1105 14.0253 54.5817 14.7349C55.0529 15.4445 55.7231 15.9991 56.5083 16.3293C57.0323 16.5503 57.5956 16.6634 58.1643 16.6616C58.7306 16.664 59.2916 16.5509 59.8127 16.3293C60.3318 16.1075 60.8048 15.7907 61.2076 15.3952C61.6323 14.9717 61.9654 14.4655 62.1865 13.9079H60.9561C60.685 14.401 60.2876 14.8132 59.8048 15.1023L59.8052 15.1006ZM55.6102 10.3929C55.8062 10.1327 56.0404 9.90353 56.3049 9.71329C56.5692 9.52181 56.8616 9.37246 57.1716 9.27053C57.4916 9.16381 57.8269 9.11009 58.1643 9.1115C58.8313 9.10314 59.4826 9.31462 60.0174 9.71329C60.5502 10.1029 60.9539 10.6435 61.1762 11.2651H55.1369C55.2501 10.9523 55.4098 10.6584 55.6106 10.3933" fill="white"/>
<path d="M27.833 15.1713C27.4014 15.4283 26.9154 15.5801 26.4143 15.6145C25.9131 15.6489 25.4109 15.5649 24.9483 15.3692C24.568 15.207 24.2225 14.9731 23.9305 14.6804C23.6394 14.3867 23.4064 14.0407 23.2438 13.6605C23.0754 13.2653 22.9899 12.8397 22.9927 12.4101C22.99 11.978 23.0755 11.55 23.2438 11.1521C23.5655 10.3785 24.1771 9.76159 24.9479 9.43328C25.4106 9.23783 25.9127 9.15389 26.4138 9.18827C26.9149 9.22266 27.4009 9.37442 27.8326 9.63124C28.3155 9.92087 28.7129 10.3337 28.9839 10.8273H30.2142C29.9946 10.2689 29.6613 9.76224 29.2354 9.33954C28.8366 8.93824 28.3624 8.6197 27.8402 8.40216C27.3179 8.18462 26.7578 8.0724 26.1921 8.07194C25.6236 8.07082 25.0607 8.18467 24.5373 8.40671C23.4826 8.8495 22.6464 9.6922 22.2117 10.7503C21.9956 11.2777 21.8852 11.8426 21.887 12.4126C21.8863 12.9769 21.9967 13.5359 22.2117 14.0577C22.4266 14.5855 22.7452 15.0648 23.1488 15.4672C23.5465 15.8659 24.0181 16.1832 24.5373 16.4013C25.0617 16.6204 25.6244 16.7333 26.1927 16.7333C26.761 16.7333 27.3237 16.6204 27.8481 16.4013C28.3671 16.1836 28.8384 15.8662 29.2354 15.4672C29.6606 15.0441 29.9938 14.5377 30.2142 13.9798H28.9839C28.7127 14.4729 28.3154 14.8851 27.8326 15.1742" fill="white"/>
<path d="M47.4126 16.6608C46.8439 16.6627 46.2807 16.5498 45.7566 16.3289C45.2378 16.1108 44.7665 15.7935 44.3693 15.3948C43.9684 14.9936 43.6506 14.5173 43.4342 13.993C43.2177 13.4688 43.1069 12.907 43.1079 12.3398C43.1055 11.7699 43.2153 11.2051 43.431 10.6775C43.8667 9.62014 44.7026 8.77779 45.7566 8.33395L45.8014 8.31679C45.9085 8.27494 46.0173 8.23311 46.1278 8.19837C46.5433 8.06639 46.9767 7.99948 47.4126 8C47.4699 8 47.5277 8.00794 47.585 8.0092C47.624 8.01255 47.6624 8.01419 47.6997 8.01712C47.7834 8.02172 47.8671 8.02929 47.9529 8.04184C48.0387 8.0544 48.1203 8.06529 48.204 8.08077C48.2349 8.08705 48.2643 8.08869 48.2956 8.09497C48.3484 8.10585 48.3982 8.123 48.4509 8.13681C48.4898 8.14644 48.5283 8.15566 48.5672 8.16654C48.775 8.21921 48.979 8.28592 49.1778 8.36619C49.4611 8.4818 49.7283 8.63324 49.973 8.81687C50.2072 8.99104 50.4173 9.19552 50.5978 9.42495L50.6133 9.44502C51.0041 9.88031 51.3031 10.3901 51.4921 10.9437C51.6188 11.3163 51.6935 11.7045 51.7143 12.0975V15.6773C51.7169 16.2473 51.6071 16.8121 51.3913 17.3396C50.9467 18.3888 50.1133 19.2254 49.0657 19.6739C48.5406 19.8909 47.9778 20.0017 47.4097 20C46.8437 20.0019 46.283 19.8909 45.7604 19.6735C45.2378 19.456 44.7639 19.1365 44.3664 18.7336C44.2617 18.6396 44.1666 18.5356 44.0822 18.423V18.4197L44.073 18.4042L44.9786 17.7765C45.2278 18.0705 45.5283 18.3168 45.8654 18.5034C46.2911 18.733 46.7629 18.8643 47.2459 18.8878C47.729 18.9112 48.2113 18.8263 48.6572 18.639C49.0369 18.4757 49.3821 18.2418 49.6746 17.9497C49.9661 17.6563 50.1987 17.3097 50.3597 16.9286C50.5298 16.5338 50.616 16.108 50.6129 15.6781V15.2178L50.6158 12.5423C50.6204 12.4724 50.62 12.4005 50.62 12.3293C50.6203 11.6781 50.4233 11.042 50.0549 10.5049C49.6865 9.96783 49.1641 9.55494 48.5564 9.32073C47.8265 9.04113 47.0197 9.03801 46.2877 9.31195C45.6747 9.54355 45.1468 9.9564 44.7742 10.4955C44.4016 11.0345 44.202 11.6743 44.202 12.3296C44.202 12.9848 44.4016 13.6246 44.7742 14.1636C45.1468 14.7027 45.6747 15.1155 46.2877 15.3471C47.0188 15.6204 47.8245 15.6173 48.5534 15.3383C48.8592 15.221 49.1452 15.0574 49.4013 14.8533V16.1506C49.2954 16.208 49.1891 16.2611 49.0807 16.3076C48.5537 16.5384 47.9846 16.6573 47.4093 16.657" fill="white"/>
<path d="M85.1112 3.00791C88.0468 5.79423 89.8719 10.1762 89.5893 13.781C89.2445 18.1963 85.7581 21.3519 80.7686 19.4109C79.7296 18.9978 78.7586 18.4309 77.8882 17.7292L78.5465 15.8021C79.3475 16.5618 80.2695 17.1828 81.2746 17.6396C85.4287 19.4805 88.512 17.0341 88.8807 13.2491C89.1892 10.0827 87.5657 6.17934 84.9361 3.75922C81.8015 0.873389 77.4727 0.298732 75.49 3.67018L75.4661 3.71294L72.6191 8.55168L67.8624 16.6355L66.4692 13.2581L73.746 2.48697L73.756 2.47154C76.3403 -1.35418 81.5179 -0.395885 85.1087 3.00791H85.1112ZM78.6509 10.2096L76.001 16.9669L73.0465 18.2934L78.5803 5.93507C79.6122 3.63138 82.296 3.66472 84.4385 5.49424C86.3352 7.11379 87.4876 9.88569 87.1691 12.066C86.8089 14.5324 84.654 15.7862 82.0816 14.3831C81.1595 13.8614 80.3639 13.1425 79.7515 12.2779L80.3302 10.5862C80.8025 11.5711 81.5457 12.4009 82.4727 12.9785C84.342 14.0851 85.9959 13.2735 86.3108 11.44C86.5974 9.77221 85.7013 7.6148 84.2151 6.39479C82.5836 5.05486 80.6352 5.15092 79.9506 6.89635L78.6504 10.2116L78.6509 10.2096ZM76.3055 4.31151L76.3134 4.29608C78.019 1.18535 81.9075 1.58389 84.7968 4.19258C87.2517 6.4097 88.7608 10.0379 88.4409 12.9591C88.0632 16.4037 85.2033 18.5078 81.4751 16.7525C80.5027 16.2828 79.62 15.6467 78.8669 14.8727L79.464 13.1313C80.1358 13.9737 80.9715 14.6712 81.9204 15.1817C84.8888 16.7276 87.297 15.1971 87.6677 12.3844C87.9906 9.93539 86.7069 6.84756 84.6047 5.01357C82.1946 2.90989 79.0987 2.76859 77.8529 5.36584C77.8469 5.37778 77.8419 5.39021 77.8359 5.40265L75.8691 9.50252L71.2672 19.0954L69.2526 20L68.5893 18.3894L76.3094 4.31254L76.3055 4.31151Z" fill="#F20C3A"/>
</svg>
