<svg width="141" height="32" viewBox="0 0 141 32" fill="none" xmlns="http://www.w3.org/2000/svg">
<g clip-path="url(#clip0_17_193)">
<path d="M89.9999 5C83.5999 5 79.6999 9.9 79.6999 15.9C79.6999 21.9 83.2999 26.5 89.6999 26.5H89.8999C96.1999 26.4 100.1 22.2 100.1 15.5C100.1 10 96.6999 5 89.9999 5ZM89.8999 22.1C87.0999 22.1 85.4999 19.5 85.4999 15.8C85.4999 12.1 87.0999 9.5 89.7999 9.5C92.4999 9.5 94.0999 12.2 94.0999 15.8C94.0999 19.4 92.5999 22.1 89.8999 22.1ZM112.3 5C105.9 5 102 9.9 102 15.9C102 21.9 105.6 26.5 112 26.5H112.2C118.5 26.4 122.4 22.2 122.4 15.5C122.4 10 119 5 112.3 5ZM112.2 22.1C109.5 22.1 107.8 19.5 107.9 15.8C108 12.1 109.5 9.5 112.2 9.5C114.9 9.5 116.5 12.2 116.5 15.8C116.5 19.4 114.9 22.1 112.2 22.1ZM136.4 15C138.8 14 139.8 12.3 139.8 10.6C139.8 8.9 138.7 7 137 6.3C135.4 5.6 133.7 5.2 131.9 5.3H130.6C128.4 5.3 126.2 5.3 124 5.8V26.2C125.8 26.5 127.7 26.6 129.5 26.6C131.3 26.6 131.1 26.6 131.9 26.5C135 26.3 136.9 25.7 138.1 24.7C139.6 23.6 140.5 21.9 140.5 20.1C140.5 17.6 138.8 15.5 136.4 15ZM129.6 9.4C130.2 9.3 130.8 9.3 131.4 9.3H131.9C133.5 9.4 134.2 10.2 134.2 11.3C134.2 12.4 133.4 13.1 131.9 13.4C131.5 13.5 131.1 13.5 130.7 13.5H129.6V9.4ZM131.9 22.4H131.2C130.7 22.4 130.1 22.4 129.6 22.3V17.3H131.9C133.5 17.5 134.6 18.2 134.6 19.7C134.6 21.2 133.4 22.2 131.9 22.4ZM54.0999 5.4V26.2H59.6999V8.8C59.6999 6.2 58.2999 5.4 54.0999 5.4ZM45.9999 13.6C43.2999 12.6 42.1999 12.2 42.1999 11.2C42.1999 10.2 43.0999 9.7 44.7999 9.7C46.4999 9.7 47.8999 10.1 49.2999 10.7C50.1999 8.5 50.5999 5.1 44.8999 5.1C39.1999 5.1 36.4999 7.9 36.4999 11.6C36.4999 15.3 38.7999 16.6 42.3999 17.9C44.6999 18.7 45.6999 19.3 45.6999 20.3C45.6999 21.3 44.7999 22 42.8999 22C40.9999 22 39.1999 21.5 37.4999 20.7L36.3999 25.3C38.2999 26.2 40.3999 26.6 42.4999 26.6C48.5999 26.6 51.3999 23.5 51.3999 20C51.3999 17 49.6999 15 45.9999 13.6ZM74.2999 21.9C70.4999 21.9 68.1999 19.5 68.1999 15.8C68.1999 12.1 70.9999 9.7 74.1999 9.7C77.3999 9.7 76.7999 10 78.0999 10.4C79.0999 8.2 78.7999 5.1 73.9999 5.1C69.1999 5.1 62.3999 8.8 62.3999 16.2C62.3999 23.6 65.7999 26.6 73.5999 26.6C75.3999 26.7 77.1999 26.4 78.7999 25.7L77.9999 21.3C76.8999 21.7 75.5999 21.9 74.2999 21.9Z" fill="white"/>
<path d="M1.8 0C1.5 0 1.3 0.2 1 0.3C0.4 0.6 0 1.3 0 2C0 2.7 0.1 2.6 0.2 2.9L9.7 19.2L12.8 13.9L17.8 5.3L14.8 0H1.8Z" fill="#7DB61C"/>
<path d="M14.7002 0L22.7002 13.9H28.8002L35.2002 2.8C35.2002 2.5 35.4002 2.3 35.4002 2C35.4002 1 34.6002 0.1 33.6002 0.1H14.7002V0Z" fill="#00AE9D"/>
<path d="M28.4002 13.9H12.8002L9.7002 19.2L16.2002 30.4L16.8002 31C17.7002 31.5 18.8002 31.2 19.4002 30.4L28.9002 14H28.4002V13.9Z" fill="#C9D200"/>
</g>
<defs>
<clipPath id="clip0_17_193">
<rect width="140.5" height="31.24" fill="white"/>
</clipPath>
</defs>
</svg>
