<svg width="1016" height="182" viewBox="0 0 1016 182" fill="none" xmlns="http://www.w3.org/2000/svg">
<path d="M68.568 129.342L53.4027 181.902H0L34.428 62.5364C82.756 75.6138 68.568 129.323 68.568 129.342Z" fill="white"/>
<path d="M52.4648 -3.09098e-05H105.886L83.1582 78.7533C79.5008 33.0293 44.8062 26.596 44.8062 26.596L52.4648 -3.09098e-05Z" fill="#139C49"/>
<path d="M136.032 129.342L120.867 181.902H67.4644L101.892 62.5364C150.22 75.6138 136.032 129.323 136.032 129.342Z" fill="white"/>
<path d="M119.929 -3.09098e-05H173.351L150.623 78.7533C146.965 33.0293 112.271 26.596 112.271 26.596L119.929 -3.09098e-05Z" fill="white"/>
<path d="M203.497 129.342L188.331 181.902H134.929L169.357 62.5364C217.685 75.6138 203.497 129.323 203.497 129.342Z" fill="white"/>
<path d="M187.394 -3.09098e-05H240.815L218.087 78.7533C214.43 33.0293 179.735 26.596 179.735 26.596L187.394 -3.09098e-05Z" fill="white"/>
<path d="M248.59 149.348L265.757 148.451C265.997 153.915 266.933 157.601 268.567 159.516C271.199 162.627 276.063 164.181 283.162 164.181C289.063 164.181 293.33 163.125 295.962 161.012C298.594 158.899 299.91 156.345 299.91 153.356C299.91 150.764 298.834 148.571 296.679 146.776C295.165 145.46 291.007 143.327 284.209 140.376C277.41 137.425 272.446 134.963 269.315 132.988C266.185 131.015 263.723 128.453 261.929 125.303C260.134 122.153 259.237 118.465 259.237 114.237C259.237 106.861 261.909 100.74 267.253 95.876C272.595 91.0106 280.33 88.5773 290.459 88.5773C300.747 88.5773 308.711 90.9906 314.355 95.816C319.997 100.641 323.097 107.06 323.655 115.075L306.37 115.852C305.93 111.665 304.415 108.456 301.823 106.223C299.231 103.989 295.403 102.873 290.339 102.873C285.355 102.873 281.795 103.751 279.663 105.504C277.53 107.26 276.463 109.473 276.463 112.144C276.463 114.656 277.439 116.729 279.394 118.365C281.347 120.04 285.674 122.332 292.374 125.244C302.461 129.591 308.882 133.119 311.634 135.829C315.739 139.819 317.794 144.941 317.794 151.203C317.794 158.939 314.733 165.548 308.613 171.031C302.491 176.513 293.969 179.255 283.042 179.255C275.506 179.255 268.977 177.988 263.454 175.456C257.93 172.925 254.034 169.405 251.761 164.899C249.487 160.393 248.43 155.209 248.59 149.348Z" fill="white"/>
<path d="M356.254 105.206H348.718C349.794 100.342 351.07 96.9315 352.546 94.9782C354.699 92.1862 357.37 90.7902 360.561 90.7902C362.634 90.7902 366.342 91.7688 371.686 93.7222C374.797 94.8395 376.929 95.3968 378.086 95.3968C379.003 95.3968 379.781 95.1075 380.419 94.5288C381.057 93.9528 381.654 92.6848 382.213 90.7315H389.869C389.111 95.6355 387.606 99.2542 385.354 101.587C383.101 103.919 380.578 105.086 377.787 105.086C375.993 105.086 373.122 104.29 369.174 102.693C365.226 101.099 362.714 100.301 361.638 100.301C360.441 100.301 359.403 100.65 358.527 101.347C357.65 102.046 356.891 103.333 356.254 105.206ZM367.977 148.151C366.941 148.431 365.565 148.69 363.85 148.929C355.238 149.966 349.615 151.482 346.983 153.475C345.109 154.91 344.171 156.845 344.171 159.277C344.171 161.271 344.89 162.955 346.325 164.331C347.761 165.707 349.654 166.395 352.007 166.395C354.599 166.395 357.041 165.766 359.335 164.511C361.627 163.254 363.342 161.639 364.478 159.666C365.615 157.691 366.622 154.611 367.499 150.425L367.977 148.151ZM351.649 132.241L334.901 130.806C336.815 125.143 340.154 120.718 344.919 117.527C349.685 114.338 355.994 112.742 363.85 112.742C372.025 112.742 378.065 114.387 381.974 117.678C385.882 120.966 387.835 124.985 387.835 129.73C387.835 131.643 387.666 133.678 387.327 135.83C386.987 137.983 385.802 143.646 383.769 152.817C382.094 160.394 381.255 165.697 381.255 168.727C381.255 171.439 381.734 174.45 382.691 177.759H366.003C365.325 175.447 364.906 173.055 364.747 170.581C362.235 173.373 359.343 175.515 356.075 177.011C352.805 178.507 349.515 179.254 346.206 179.254C340.942 179.254 336.595 177.53 333.166 174.081C329.737 170.631 328.022 166.195 328.022 160.773C328.022 154.711 329.906 149.866 333.674 146.237C337.443 142.61 344.171 140.415 353.862 139.658C362.035 138.981 367.499 138.163 370.251 137.206C370.969 134.813 371.327 132.899 371.327 131.463C371.327 129.63 370.589 128.094 369.114 126.858C367.638 125.623 365.445 125.005 362.534 125.005C359.463 125.005 357.041 125.631 355.267 126.889C353.493 128.143 352.286 129.929 351.649 132.241Z" fill="white"/>
<path d="M446.991 139.12C446.991 135.052 445.804 131.794 443.432 129.34C441.059 126.888 437.999 125.662 434.251 125.662C430.543 125.662 427.252 126.81 424.381 129.1C421.511 131.395 419.277 134.723 417.683 139.091C416.087 143.456 415.291 147.475 415.291 151.143C415.291 155.688 416.525 159.298 418.999 161.97C421.471 164.642 424.58 165.976 428.329 165.976C433.033 165.976 436.981 163.963 440.172 159.935C444.717 154.234 446.991 147.295 446.991 139.12ZM398.064 151.382C398.064 139.619 401.383 130.238 408.023 123.24C414.661 116.242 423.384 112.743 434.191 112.743C443.561 112.743 450.879 115.324 456.143 120.488C461.407 125.652 464.037 132.6 464.037 141.332C464.037 151.62 460.748 160.514 454.168 168.01C447.589 175.507 438.776 179.255 427.731 179.255C421.749 179.255 416.445 178.058 411.821 175.666C407.195 173.274 403.745 169.884 401.473 165.498C399.2 161.111 398.064 156.406 398.064 151.382Z" fill="white"/>
<path d="M554.954 177.76H537.847L534.678 104.489L520.741 177.76H504.471L522.774 90.0729H548.493L551.186 151.502L581.093 90.0729H607.11L588.749 177.76H572.301L589.585 105.026L554.954 177.76Z" fill="white"/>
<path d="M647.006 148.151C645.969 148.431 644.592 148.69 642.878 148.929C634.265 149.966 628.644 151.482 626.012 153.475C624.137 154.91 623.201 156.846 623.201 159.277C623.201 161.271 623.918 162.955 625.354 164.331C626.789 165.707 628.682 166.395 631.036 166.395C633.628 166.395 636.07 165.766 638.364 164.511C640.656 163.254 642.37 161.639 643.506 159.666C644.644 157.691 645.649 154.611 646.528 150.425L647.006 148.151ZM630.677 132.241L613.929 130.806C615.844 125.143 619.182 120.718 623.948 117.527C628.712 114.338 635.024 112.742 642.878 112.742C651.053 112.742 657.093 114.387 661.002 117.678C664.91 120.966 666.865 124.985 666.865 129.73C666.865 131.643 666.694 133.678 666.356 135.83C666.017 137.983 664.83 143.646 662.797 152.817C661.122 160.394 660.285 165.697 660.285 168.727C660.285 171.439 660.762 174.45 661.72 177.759H645.033C644.354 175.447 643.934 173.055 643.776 170.581C641.264 173.373 638.372 175.515 635.102 177.013C631.833 178.507 628.542 179.254 625.234 179.254C619.97 179.254 615.624 177.53 612.196 174.081C608.765 170.631 607.05 166.195 607.05 160.773C607.05 154.711 608.934 149.866 612.702 146.237C616.472 142.61 623.201 140.415 632.89 139.658C641.064 138.981 646.528 138.163 649.278 137.206C649.997 134.813 650.356 132.899 650.356 131.463C650.356 129.63 649.617 128.094 648.144 126.858C646.666 125.623 644.474 125.005 641.564 125.005C638.492 125.005 636.07 125.631 634.296 126.889C632.521 128.143 631.314 129.929 630.677 132.241Z" fill="white"/>
<path d="M686.902 114.237H702.931L700.359 126.559C706.34 117.348 712.819 112.743 719.799 112.743C722.27 112.743 724.923 113.361 727.754 114.597L721.174 128.653C719.619 128.095 717.964 127.816 716.21 127.816C713.259 127.816 710.259 128.932 707.207 131.164C704.156 133.399 701.774 136.379 700.06 140.107C698.346 143.836 696.651 149.747 694.976 157.841L690.79 177.76H673.623L686.902 114.237Z" fill="white"/>
<path d="M726.557 126.978L729.189 114.237H737.563L739.655 104.069L759.334 92.2276L754.729 114.237H765.195L762.565 126.978H752.037L746.474 153.594C745.477 158.42 744.979 161.172 744.979 161.849C744.979 163.165 745.398 164.192 746.235 164.929C747.073 165.668 748.587 166.036 750.782 166.036C751.538 166.036 753.433 165.896 756.463 165.617L753.771 178.357C750.821 178.954 747.791 179.254 744.681 179.254C738.619 179.254 734.213 178.088 731.462 175.756C728.71 173.422 727.334 170.184 727.334 166.036C727.334 164.082 728.073 159.576 729.547 152.518L734.87 126.978H726.557Z" fill="white"/>
<path d="M781.346 90.0733H798.513L795.283 105.624H778.117L781.346 90.0733ZM776.322 114.237H793.487L780.21 177.76H763.043L776.322 114.237Z" fill="white"/>
<path d="M810.595 114.237H826.864L825.189 122.491C829.257 118.984 833.056 116.481 836.584 114.985C840.113 113.489 843.831 112.743 847.739 112.743C852.963 112.743 857.079 114.237 860.091 117.228C863.101 120.219 864.607 124.187 864.607 129.131C864.607 131.365 863.949 135.592 862.632 141.812L855.156 177.76H837.989L845.525 141.692C846.641 136.309 847.201 133.099 847.201 132.061C847.201 129.869 846.552 128.144 845.257 126.888C843.96 125.632 842.156 125.004 839.844 125.004C837.332 125.004 834.54 126.061 831.469 128.173C828.4 130.288 825.987 133.079 824.233 136.547C822.956 139.021 821.52 144.064 819.927 151.68L814.483 177.76H797.317L810.595 114.237Z" fill="white"/>
<path d="M889.308 177.76H872.143L890.504 90.0729H907.671L901.092 121.296C904.959 118.266 908.568 116.082 911.917 114.746C915.268 113.41 918.856 112.742 922.684 112.742C927.828 112.742 931.895 114.218 934.887 117.169C937.877 120.121 939.372 123.988 939.372 128.773C939.372 131.325 938.813 135.273 937.697 140.616L929.921 177.76H912.755L920.711 139.898C921.548 135.79 921.967 133.16 921.967 132.002C921.967 129.889 921.308 128.194 919.993 126.918C918.676 125.642 916.883 125.005 914.609 125.005C911.739 125.005 908.987 126.002 906.355 127.996C902.925 130.626 900.315 133.856 898.52 137.684C897.523 139.798 896.207 144.764 894.572 152.577L889.308 177.76Z" fill="white"/>
<path d="M998.169 139.12C998.169 135.052 996.982 131.794 994.61 129.34C992.238 126.888 989.177 125.662 985.429 125.662C981.721 125.662 978.43 126.81 975.56 129.1C972.689 131.395 970.456 134.723 968.861 139.091C967.265 143.456 966.469 147.475 966.469 151.143C966.469 155.688 967.704 159.298 970.177 161.97C972.648 164.642 975.758 165.976 979.508 165.976C984.212 165.976 988.16 163.963 991.35 159.935C995.897 154.234 998.169 147.295 998.169 139.12ZM949.242 151.382C949.242 139.619 952.562 130.238 959.201 123.24C965.841 116.242 974.562 112.743 985.369 112.743C994.74 112.743 1002.06 115.324 1007.32 120.488C1012.58 125.652 1015.22 132.6 1015.22 141.332C1015.22 151.62 1011.93 160.514 1005.35 168.01C998.768 175.507 989.954 179.255 978.91 179.255C972.928 179.255 967.625 178.058 963 175.666C958.373 173.274 954.924 169.884 952.652 165.498C950.378 161.111 949.242 156.406 949.242 151.382Z" fill="white"/>
</svg>
