<svg width="985" height="400" viewBox="0 0 985 400" fill="none" xmlns="http://www.w3.org/2000/svg">
<g clip-path="url(#clip0_17_180)">
<mask id="mask0_17_180" style="mask-type:luminance" maskUnits="userSpaceOnUse" x="0" y="-1" width="985" height="401">
<path d="M0 -0.00138801V399.307H984.757V-0.00138801H0Z" fill="white"/>
</mask>
<g mask="url(#mask0_17_180)">
<path fill-rule="evenodd" clip-rule="evenodd" d="M319.375 306.16C319.375 342.804 289.484 372.693 252.841 372.693V399.307C286.652 399.307 316.356 381.128 332.68 354.042V306.16H319.375ZM345.987 306.16C345.987 342.804 375.88 372.693 412.531 372.693V399.307C378.703 399.307 349.008 381.128 332.68 354.042V306.16H345.987ZM665.369 93.1493C665.369 56.5026 695.253 26.6173 731.904 26.6173V-0.00138801C698.084 -0.00138801 668.376 18.1826 652.061 45.2653V93.1493H665.369ZM638.745 93.1919H652.061V45.3133C635.743 18.2266 606.029 0.0466263 572.207 0.0466263V26.6573C608.865 26.6573 638.745 56.5506 638.745 93.1919ZM638.745 306.126C638.745 342.764 608.865 372.735 572.207 372.735V399.271C623.519 399.271 665.369 357.419 665.369 306.126H638.745ZM958.127 93.2013H984.757C984.757 41.8959 942.908 0.0546341 891.591 0.0546341V26.6573C928.229 26.6573 958.127 56.5506 958.127 93.2013ZM26.6145 306.126H0C0 357.419 41.8432 399.271 93.1505 399.271V372.654C56.5005 372.654 26.6145 342.764 26.6145 306.126ZM412.549 0.0546341C363.788 0.0546341 319.292 42.1093 319.375 93.168H346.011C346.011 55.3413 376.917 26.6173 412.547 26.604C412.457 13.9373 412.468 9.72663 412.549 0.0546341ZM665.369 372.661V399.295H825.06V266.191H984.757V93.2013H958.127V239.573H825.06V93.2013H798.441V372.654L665.369 372.661ZM731.904 -0.00138801L891.591 0.0546341V26.6853L731.904 26.6173V-0.00138801ZM665.431 247.355L665.369 306.126H638.745V258.393L483.073 102.473L501.731 83.608L665.431 247.355ZM319.375 151.969L483.073 315.712L501.731 296.845L346.011 140.929V93.168H319.375V151.969ZM0 0.0546341H319.375V26.6573H186.303V305.56H159.683V26.6573H26.6145V306.126H0V0.0546341ZM93.1505 372.654H252.865V399.295H93.1505V372.654ZM412.535 0.0612748L572.225 0.0546341V26.6853L412.535 26.604V0.0612748ZM412.531 372.693L572.225 372.789V399.277L412.535 399.236L412.531 372.693Z" fill="white"/>
</g>
</g>
<defs>
<clipPath id="clip0_17_180">
<rect width="984.76" height="399.307" fill="white"/>
</clipPath>
</defs>
</svg>
